<?xml version="1.0" encoding="UTF-8" standalone="no"?>
<!-- Created with Inkscape (http://www.inkscape.org/) -->

<svg
   width="205.46764mm"
   height="14.073376mm"
   viewBox="0 0 205.46764 14.073376"
   version="1.1"
   id="svg1"
   inkscape:version="1.3 (0e150ed, 2023-07-21)"
   sodipodi:docname="asymmetric-workflow.svg"
   xmlns:inkscape="http://www.inkscape.org/namespaces/inkscape"
   xmlns:sodipodi="http://sodipodi.sourceforge.net/DTD/sodipodi-0.dtd"
   xmlns="http://www.w3.org/2000/svg"
   xmlns:svg="http://www.w3.org/2000/svg">
  <sodipodi:namedview
     id="namedview1"
     pagecolor="#ffffff"
     bordercolor="#666666"
     borderopacity="1.0"
     inkscape:showpageshadow="2"
     inkscape:pageopacity="0.0"
     inkscape:pagecheckerboard="0"
     inkscape:deskcolor="#d1d1d1"
     inkscape:document-units="mm"
     inkscape:zoom="1.5754389"
     inkscape:cx="579.52106"
     inkscape:cy="32.371932"
     inkscape:window-width="2560"
     inkscape:window-height="1323"
     inkscape:window-x="0"
     inkscape:window-y="25"
     inkscape:window-maximized="1"
     inkscape:current-layer="layer1" />
  <defs
     id="defs1">
    <marker
       style="overflow:visible"
       id="ConcaveTriangle"
       refX="0"
       refY="0"
       orient="auto-start-reverse"
       inkscape:stockid="Concave triangle arrow"
       markerWidth="1"
       markerHeight="1"
       viewBox="0 0 1 1"
       inkscape:isstock="true"
       inkscape:collect="always"
       preserveAspectRatio="xMidYMid">
      <path
         transform="scale(0.7)"
         d="M -2,-4 9,0 -2,4 c 2,-2.33 2,-5.66 0,-8 z"
         style="fill:context-stroke;fill-rule:evenodd;stroke:none"
         id="path8" />
    </marker>
  </defs>
  <g
     inkscape:label="Layer 1"
     inkscape:groupmode="layer"
     id="layer1"
     transform="translate(48.161929,-119.71761)">
    <path
       style="fill:none;stroke:#000000;stroke-width:0.264583px;stroke-linecap:butt;stroke-linejoin:miter;stroke-opacity:1;marker-end:url(#ConcaveTriangle)"
       d="m -17.003486,124.15893 h 54.09564"
       id="path9"
       sodipodi:nodetypes="cc" />
    <path
       style="fill:none;stroke:#000000;stroke-width:0.264583px;stroke-linecap:butt;stroke-linejoin:miter;stroke-opacity:1;marker-end:url(#ConcaveTriangle)"
       d="m 70.05918,124.15893 h 54.09564"
       id="path7"
       sodipodi:nodetypes="cc" />
    <rect
       style="fill:#ffffff;stroke:#000000;stroke-width:0.176389;stroke-linecap:round;stroke-linejoin:round"
       id="rect1"
       width="31.165911"
       height="8.7062511"
       x="-4.5424008"
       y="119.8058"
       ry="4.3531256" />
    <path
       d="m 0.75073528,125.66246 q 0,-0.39017 0.36547782,-0.61242 -0.1135944,-0.15311 -0.1135944,-0.3556 0,-0.19262 0.098778,-0.33585 -0.15804451,-0.20249 -0.15804451,-0.46919 0,-0.32103 0.23706671,-0.55316 0.2370667,-0.23707 0.5778501,-0.23707 0.2617612,0 0.4790724,0.14817 0.2321278,-0.17286 0.5235223,-0.17286 0.1827389,0 0.2716389,0.084 0.0889,0.079 0.0889,0.18274 0,0.0988 -0.064206,0.15311 -0.059267,0.0494 -0.13335,0.0494 -0.054328,0 -0.1135945,-0.0395 -0.059267,-0.0395 -0.079022,-0.12841 -0.1629834,0.0148 -0.2864557,0.084 0.1284112,0.21238 0.1284112,0.42969 0,0.3309 -0.2370667,0.56303 -0.2370668,0.23213 -0.5778502,0.23213 -0.2617611,0 -0.4445001,-0.12347 -0.029633,0.0741 -0.029633,0.13828 0,0.10372 0.059267,0.1778 0.059267,0.0691 0.1629833,0.0691 0.039511,0.01 0.1432279,0.01 h 0.3457223 q 0.4494389,0 0.716139,0.14322 0.1728612,0.0938 0.2568223,0.24695 0.083961,0.15804 0.083961,0.31609 0,0.31115 -0.3358445,0.51858 -0.3358445,0.20743 -0.8149169,0.20743 -0.4790723,0 -0.8149168,-0.20743 -0.33584452,-0.20249 -0.33584452,-0.51858 z m 0.28645562,0 q 0,0.16792 0.2518834,0.29633 0.2518834,0.13335 0.6124223,0.13335 0.360539,0 0.6124224,-0.13335 0.2518834,-0.12841 0.2518834,-0.29633 0,-0.14817 -0.083961,-0.24201 -0.083961,-0.0938 -0.2617612,-0.13335 -0.1778,-0.0346 -0.3012723,-0.0395 -0.1234722,-0.01 -0.3506612,-0.01 -0.2815167,0 -0.360539,0.01 -0.079022,0.01 -0.1679222,0.0691 -0.2024945,0.12841 -0.2024945,0.34572 z m 0.2469445,-1.76812 q 0,0.19755 0.1382889,0.34572 0.1382889,0.14816 0.3358445,0.14816 0.1926167,0 0.3309057,-0.14322 0.1432278,-0.14817 0.1432278,-0.3556 0,-0.19756 -0.1382889,-0.34573 -0.138289,-0.14816 -0.3358446,-0.14816 -0.1926167,0 -0.3358445,0.14816 -0.1382889,0.14323 -0.1382889,0.35067 z m 2.5188319,1.07173 q -0.3309056,-0.32596 -0.3309056,-0.78034 0,-0.45438 0.3111501,-0.77541 0.3111501,-0.32596 0.7507113,-0.32596 0.4593167,0 0.7062612,0.30127 0.2518834,0.29633 0.2518834,0.74577 0,0.0642 -0.014817,0.10372 -0.014817,0.0395 -0.049389,0.0593 -0.029633,0.0148 -0.059267,0.0197 -0.024694,0 -0.074083,0 H 3.8227229 q 0.059267,0.30621 0.2913945,0.48895 0.2370667,0.18274 0.5284612,0.18274 0.3852335,0 0.5136446,-0.29633 0.024694,-0.0691 0.059267,-0.0889 0.034572,-0.0198 0.1037167,-0.0198 0.1728611,0 0.1728611,0.13829 0,0.0543 -0.049389,0.14323 -0.049389,0.084 -0.1481667,0.18768 -0.093839,0.0988 -0.2765778,0.16792 -0.182739,0.0691 -0.4099279,0.0691 -0.4741334,0 -0.8050391,-0.32103 z m 0.024694,-0.94826 h 1.3137447 q -0.029633,-0.34572 -0.2024945,-0.48895 -0.1728611,-0.14323 -0.4049889,-0.14323 -0.2568223,0 -0.4543779,0.18274 -0.1975556,0.1778 -0.2518834,0.44944 z m 2.0249429,1.09149 q 0,-0.1531 0.2024945,-0.1531 h 0.2173112 v -1.52612 H 6.0501603 q -0.1975556,0 -0.1975556,-0.14817 0,-0.1531 0.2024945,-0.1531 h 0.360539 q 0.1382889,0 0.1679223,0.0494 0.029633,0.0444 0.029633,0.18274 0.2617612,-0.26177 0.6469946,-0.26177 0.6420557,0 0.6420557,0.7112 v 1.14583 h 0.2173111 q 0.2024945,0 0.2024945,0.1531 0,0.14817 -0.1975556,0.14817 H 7.368844 q -0.2024945,0 -0.2024945,-0.14817 0,-0.1531 0.2024945,-0.1531 h 0.1926167 v -1.12113 q 0,-0.23213 -0.074083,-0.33091 -0.069144,-0.10371 -0.2568223,-0.10371 -0.2271889,0 -0.4247445,0.17286 -0.1926167,0.17286 -0.1926167,0.5087 v 0.87419 H 6.830505 q 0.2024944,0 0.2024944,0.1531 0,0.14817 -0.1975556,0.14817 H 6.0501603 q -0.1975556,0 -0.1975556,-0.14817 z m 3.136193,-0.14323 q -0.3309056,-0.32596 -0.3309056,-0.78034 0,-0.45438 0.31115,-0.77541 0.3111501,-0.32596 0.7507113,-0.32596 0.4593166,0 0.7062616,0.30127 0.251883,0.29633 0.251883,0.74577 0,0.0642 -0.01482,0.10372 -0.01482,0.0395 -0.04939,0.0593 -0.02963,0.0148 -0.05927,0.0197 -0.02469,0 -0.07408,0 H 9.0085533 q 0.059267,0.30621 0.2913945,0.48895 0.2370667,0.18274 0.5284612,0.18274 0.385233,0 0.513645,-0.29633 0.02469,-0.0691 0.05927,-0.0889 0.03457,-0.0198 0.103717,-0.0198 0.172861,0 0.172861,0.13829 0,0.0543 -0.04939,0.14323 -0.04939,0.084 -0.148167,0.18768 -0.09384,0.0988 -0.276577,0.16792 -0.182739,0.0691 -0.4099282,0.0691 -0.4741335,0 -0.8050391,-0.32103 z m 0.024694,-0.94826 h 1.3137449 q -0.02963,-0.34572 -0.202495,-0.48895 -0.1728608,-0.14323 -0.4049886,-0.14323 -0.2568223,0 -0.4543779,0.18274 -0.1975556,0.1778 -0.2518834,0.44944 z m 2.1237209,1.08655 q 0,-0.14816 0.197556,-0.14816 h 0.40005 v -1.52612 h -0.40005 q -0.05927,0 -0.09384,-0.005 -0.02963,-0.005 -0.06915,-0.0395 -0.03457,-0.0395 -0.03457,-0.10866 0,-0.14816 0.197556,-0.14816 h 0.543278 q 0.123472,0 0.158044,0.0444 0.03951,0.0395 0.03951,0.15804 v 0.16792 q 0.350661,-0.40005 0.839612,-0.40005 0.143227,0 0.242005,0.0346 0.103717,0.0296 0.148167,0.084 0.04445,0.0494 0.05927,0.0988 0.01975,0.0444 0.01975,0.0889 0,0.0938 -0.06421,0.1531 -0.05927,0.0593 -0.143228,0.0593 -0.0889,0 -0.148167,-0.0642 -0.05927,-0.0642 -0.06421,-0.1531 -0.419805,0 -0.656872,0.28151 -0.232128,0.27658 -0.232128,0.65688 v 0.61736 h 0.548217 q 0.202495,0 0.202495,0.1531 0,0.14817 -0.202495,0.14817 h -1.28905 q -0.05927,0 -0.09384,-0.005 -0.02963,-0.005 -0.06915,-0.0395 -0.03457,-0.0395 -0.03457,-0.10866 z m 2.70651,-0.47907 q 0,-0.34572 0.40005,-0.5334 0.404989,-0.19262 1.081617,-0.20249 0,-0.25189 -0.167922,-0.37536 -0.167922,-0.12841 -0.464256,-0.12841 -0.108655,0 -0.1778,0.005 -0.07408,0.005 -0.0889,0.0148 -0.01482,0.01 -0.01482,0.0395 -0.0049,0.12347 -0.07408,0.1778 -0.06914,0.0494 -0.143228,0.0494 -0.09384,0 -0.158044,-0.0593 -0.06421,-0.0593 -0.06421,-0.16792 0,-0.36054 0.716139,-0.36054 0.48895,0 0.730956,0.23213 0.246945,0.23212 0.246945,0.5334 v 1.0668 q 0.103716,0.0395 0.296333,0.0395 0.197556,0 0.197556,0.14816 0,0.0741 -0.03951,0.10866 -0.03457,0.0346 -0.07902,0.0395 -0.03951,0.005 -0.128411,0.005 -0.419806,0 -0.5334,-0.15805 -0.286456,0.18768 -0.721078,0.18768 -0.365478,0 -0.592667,-0.19755 -0.22225,-0.19756 -0.22225,-0.46426 z m 0.340784,0 q 0,0.14817 0.143227,0.25682 0.143228,0.10372 0.365478,0.10372 0.261761,0 0.439561,-0.084 0.0889,-0.0395 0.13335,-0.0938 0.04445,-0.0593 0.04939,-0.0988 0.0099,-0.0395 0.0099,-0.11359 v -0.41487 q -0.528461,0.0148 -0.834672,0.13829 -0.306211,0.12347 -0.306211,0.30621 z m 2.103964,-1.34338 q 0,-0.1531 0.202495,-0.1531 h 0.429683 v -0.40499 q 0,-0.0642 0.0049,-0.0988 0.0049,-0.0346 0.04445,-0.0691 0.04445,-0.0346 0.123472,-0.0346 0.113595,0 0.138289,0.0543 0.02963,0.0494 0.02963,0.14817 v 0.40499 h 0.809978 q 0.05927,0 0.0889,0.005 0.03457,0.005 0.06915,0.0444 0.03951,0.0346 0.03951,0.10371 0,0.14817 -0.197556,0.14817 h -0.809978 v 1.17546 q 0,0.0691 0.0049,0.11853 0.0099,0.0444 0.03951,0.11853 0.03457,0.0691 0.118534,0.10866 0.08396,0.0346 0.217311,0.0346 0.07902,0 0.158044,-0.0198 0.07902,-0.0247 0.158045,-0.10865 0.08396,-0.0889 0.08396,-0.22719 0,-0.0543 0.0049,-0.0889 0.0099,-0.0346 0.04939,-0.0642 0.03951,-0.0346 0.113594,-0.0346 0.07902,0 0.118534,0.0346 0.04445,0.0346 0.04939,0.0692 0.0049,0.0296 0.0049,0.0889 0,0.30621 -0.232127,0.47907 -0.232128,0.17286 -0.533401,0.17286 -0.301272,0 -0.498827,-0.15804 -0.197556,-0.16299 -0.197556,-0.49389 v -1.20509 h -0.434622 q -0.197556,0 -0.197556,-0.14817 z m 3.071989,1.68416 q -0.330906,-0.32596 -0.330906,-0.78034 0,-0.45438 0.31115,-0.77541 0.31115,-0.32596 0.750712,-0.32596 0.459316,0 0.706261,0.30127 0.251883,0.29633 0.251883,0.74577 0,0.0642 -0.01482,0.10372 -0.01482,0.0395 -0.04939,0.0593 -0.02963,0.0148 -0.05927,0.0197 -0.02469,0 -0.07408,0 h -1.47179 q 0.05927,0.30621 0.291395,0.48895 0.237067,0.18274 0.528461,0.18274 0.385234,0 0.513645,-0.29633 0.02469,-0.0691 0.05927,-0.0889 0.03457,-0.0198 0.103717,-0.0198 0.172861,0 0.172861,0.13829 0,0.0543 -0.04939,0.14323 -0.04939,0.084 -0.148166,0.18768 -0.09384,0.0988 -0.276578,0.16792 -0.182739,0.0691 -0.409928,0.0691 -0.474134,0 -0.805039,-0.32103 z m 0.02469,-0.94826 h 1.313745 q -0.02963,-0.34572 -0.202494,-0.48895 -0.172862,-0.14323 -0.404989,-0.14323 -0.256823,0 -0.454378,0.18274 -0.197556,0.1778 -0.251884,0.44944 z"
       id="text1"
       style="font-size:4.93889px;line-height:1.25;font-family:'CMU Typewriter Text';-inkscape-font-specification:'CMU Typewriter Text';text-align:center;text-anchor:middle;stroke-width:0.264583"
       aria-label="generate" />
    <rect
       style="fill:#ffffff;stroke:#000000;stroke-width:0.176389;stroke-linecap:round;stroke-linejoin:round"
       id="rect2"
       width="31.165911"
       height="8.7062511"
       x="38.988934"
       y="119.8058"
       ry="1.1356" />
    <path
       d="m 43.020183,124.19561 q 0,-0.46426 0.301272,-0.78035 0.301272,-0.31609 0.7112,-0.31609 0.325967,0 0.57785,0.22225 v -0.78034 h -0.22225 q -0.197555,0 -0.197555,-0.14817 0,-0.1531 0.202494,-0.1531 h 0.360539 q 0.123472,0 0.158045,0.0444 0.03951,0.0395 0.03951,0.15804 v 2.5139 h 0.22225 q 0.197555,0 0.197555,0.14816 0,0.15311 -0.202494,0.15311 h -0.360539 q -0.138289,0 -0.167922,-0.0494 -0.02963,-0.0494 -0.02963,-0.19756 -0.2667,0.27658 -0.6223,0.27658 -0.395111,0 -0.681567,-0.31609 -0.286455,-0.32102 -0.286455,-0.7754 z m 0.340783,0 q 0,0.32596 0.187678,0.55809 0.192617,0.23213 0.459317,0.23213 0.261761,0 0.429683,-0.22225 0.172861,-0.22719 0.172861,-0.46426 v -0.35066 q 0,-0.21237 -0.162983,-0.38029 -0.162983,-0.16792 -0.395111,-0.16792 -0.271639,0 -0.484011,0.22719 -0.207434,0.22718 -0.207434,0.56797 z m 2.345971,0.42968 q 0,-0.34572 0.40005,-0.5334 0.404989,-0.19262 1.081617,-0.20249 0,-0.25189 -0.167922,-0.37536 -0.167923,-0.12841 -0.464256,-0.12841 -0.108655,0 -0.1778,0.005 -0.07408,0.005 -0.0889,0.0148 -0.01482,0.01 -0.01482,0.0395 -0.0049,0.12347 -0.07408,0.1778 -0.06914,0.0494 -0.143228,0.0494 -0.09384,0 -0.158044,-0.0593 -0.06421,-0.0593 -0.06421,-0.16792 0,-0.36054 0.716139,-0.36054 0.48895,0 0.730956,0.23213 0.246944,0.23212 0.246944,0.5334 v 1.0668 q 0.103717,0.0395 0.296334,0.0395 0.197555,0 0.197555,0.14816 0,0.0741 -0.03951,0.10866 -0.03457,0.0346 -0.07902,0.0395 -0.03951,0.005 -0.128411,0.005 -0.419806,0 -0.5334,-0.15805 -0.286456,0.18768 -0.721078,0.18768 -0.365478,0 -0.592667,-0.19755 -0.22225,-0.19756 -0.22225,-0.46426 z m 0.340783,0 q 0,0.14817 0.143228,0.25682 0.143228,0.10372 0.365478,0.10372 0.261761,0 0.439561,-0.084 0.0889,-0.0395 0.13335,-0.0938 0.04445,-0.0593 0.04939,-0.0988 0.0099,-0.0395 0.0099,-0.11359 v -0.41487 q -0.528461,0.0148 -0.834672,0.13829 -0.306212,0.12347 -0.306212,0.30621 z m 2.103966,-1.34338 q 0,-0.1531 0.202494,-0.1531 h 0.429684 v -0.40499 q 0,-0.0642 0.0049,-0.0988 0.0049,-0.0346 0.04445,-0.0691 0.04445,-0.0346 0.123473,-0.0346 0.113594,0 0.138289,0.0543 0.02963,0.0494 0.02963,0.14817 v 0.40499 h 0.809978 q 0.05927,0 0.0889,0.005 0.03457,0.005 0.06914,0.0444 0.03951,0.0346 0.03951,0.10371 0,0.14817 -0.197555,0.14817 h -0.809978 v 1.17546 q 0,0.0691 0.0049,0.11853 0.0099,0.0444 0.03951,0.11853 0.03457,0.0691 0.118533,0.10866 0.08396,0.0346 0.217311,0.0346 0.07902,0 0.158045,-0.0198 0.07902,-0.0247 0.158044,-0.10865 0.08396,-0.0889 0.08396,-0.22719 0,-0.0543 0.0049,-0.0889 0.0099,-0.0346 0.04939,-0.0642 0.03951,-0.0346 0.113595,-0.0346 0.07902,0 0.118533,0.0346 0.04445,0.0346 0.04939,0.0692 0.0049,0.0296 0.0049,0.0889 0,0.30621 -0.232128,0.47907 -0.232128,0.17286 -0.5334,0.17286 -0.301272,0 -0.498828,-0.15804 -0.197555,-0.16299 -0.197555,-0.49389 v -1.20509 h -0.434623 q -0.197555,0 -0.197555,-0.14817 z m 2.741081,1.34338 q 0,-0.34572 0.40005,-0.5334 0.404989,-0.19262 1.081617,-0.20249 0,-0.25189 -0.167922,-0.37536 -0.167922,-0.12841 -0.464256,-0.12841 -0.108655,0 -0.1778,0.005 -0.07408,0.005 -0.0889,0.0148 -0.01482,0.01 -0.01482,0.0395 -0.0049,0.12347 -0.07408,0.1778 -0.06914,0.0494 -0.143227,0.0494 -0.09384,0 -0.158045,-0.0593 -0.06421,-0.0593 -0.06421,-0.16792 0,-0.36054 0.716139,-0.36054 0.48895,0 0.730955,0.23213 0.246945,0.23212 0.246945,0.5334 v 1.0668 q 0.103716,0.0395 0.296333,0.0395 0.197556,0 0.197556,0.14816 0,0.0741 -0.03951,0.10866 -0.03457,0.0346 -0.07902,0.0395 -0.03951,0.005 -0.128411,0.005 -0.419805,0 -0.5334,-0.15805 -0.286455,0.18768 -0.721078,0.18768 -0.365478,0 -0.592667,-0.19755 -0.22225,-0.19756 -0.22225,-0.46426 z m 0.340784,0 q 0,0.14817 0.143228,0.25682 0.143227,0.10372 0.365477,0.10372 0.261762,0 0.439562,-0.084 0.0889,-0.0395 0.13335,-0.0938 0.04445,-0.0593 0.04939,-0.0988 0.0099,-0.0395 0.0099,-0.11359 v -0.41487 q -0.528461,0.0148 -0.834672,0.13829 -0.306211,0.12347 -0.306211,0.30621 z m 2.257071,0.92851 q 0,-0.0346 0.0099,-0.0691 0.0099,-0.0296 0.05927,-0.0692 0.05433,-0.0346 0.138289,-0.0346 h 1.624895 q 0.113594,0 0.158044,0.0593 0.04445,0.0593 0.04445,0.11853 0,0.0642 -0.04939,0.1136 -0.04445,0.0543 -0.162984,0.0543 h -1.619956 q -0.202494,-0.005 -0.202494,-0.17286 z m 2.523771,-0.44944 q 0,-0.14816 0.202494,-0.14816 h 0.498828 v -1.52612 h -0.498828 q -0.197555,0 -0.197555,-0.14817 0,-0.1531 0.202494,-0.1531 h 0.493889 v -0.26176 q 0,-0.30621 0.227189,-0.47908 0.232128,-0.1778 0.548217,-0.1778 0.474133,0 0.474133,0.29634 0,0.0988 -0.06914,0.15804 -0.06421,0.0593 -0.143228,0.0593 -0.07902,0 -0.13335,-0.0494 -0.04939,-0.0543 -0.06914,-0.0988 -0.01482,-0.0444 -0.01482,-0.0642 -0.08396,0 -0.143228,0.01 -0.05433,0.005 -0.148167,0.0395 -0.0889,0.0296 -0.138288,0.11853 -0.04939,0.084 -0.04939,0.21731 v 0.23213 h 0.602544 q 0.05927,0 0.0889,0.005 0.03457,0.005 0.06914,0.0444 0.03951,0.0346 0.03951,0.10371 0,0.14817 -0.197556,0.14817 h -0.602544 v 1.52612 h 0.498828 q 0.202494,0 0.202494,0.1531 0,0.14817 -0.202494,0.14817 h -1.33844 q -0.202494,0 -0.202494,-0.15311 z m 2.770714,0.005 q 0,-0.1531 0.202495,-0.1531 h 0.597606 v -1.52612 h -0.558095 q -0.202494,0 -0.202494,-0.15311 0,-0.14816 0.202494,-0.14816 h 0.701322 q 0.123473,0 0.158045,0.0444 0.03951,0.0395 0.03951,0.15804 v 1.6249 h 0.518584 q 0.202494,0 0.202494,0.1531 0,0.14817 -0.202494,0.14817 h -1.456973 q -0.202495,0 -0.202495,-0.14817 z m 0.71614,-2.44969 q -0.06914,-0.0741 -0.06914,-0.1778 0,-0.10371 0.06914,-0.17286 0.07408,-0.0741 0.1778,-0.0741 0.103716,0 0.172861,0.0741 0.07408,0.0692 0.07408,0.17286 0,0.10372 -0.07408,0.1778 -0.06914,0.0691 -0.172861,0.0691 -0.103717,0 -0.1778,-0.0691 z m 1.777999,2.44969 q 0,-0.1531 0.202495,-0.1531 h 0.637116 v -2.41512 h -0.642055 q -0.197556,0 -0.197556,-0.14817 0,-0.1531 0.202495,-0.1531 h 0.780344 q 0.123473,0 0.158045,0.0444 0.03951,0.0395 0.03951,0.15804 v 2.5139 h 0.642056 q 0.05927,0 0.0889,0.005 0.03457,0.005 0.06914,0.0444 0.03951,0.0346 0.03951,0.10371 0,0.14817 -0.197555,0.14817 h -1.624895 q -0.197556,0 -0.197556,-0.14817 z m 2.909004,-0.14323 q -0.330906,-0.32596 -0.330906,-0.78034 0,-0.45438 0.31115,-0.77541 0.31115,-0.32596 0.750711,-0.32596 0.459317,0 0.706262,0.30127 0.251883,0.29633 0.251883,0.74577 0,0.0642 -0.01482,0.10372 -0.01482,0.0395 -0.04939,0.0593 -0.02963,0.0148 -0.05927,0.0197 -0.02469,0 -0.07408,0 h -1.471789 q 0.05927,0.30621 0.291395,0.48895 0.237066,0.18274 0.528461,0.18274 0.385233,0 0.513645,-0.29633 0.02469,-0.0691 0.05927,-0.0889 0.03457,-0.0198 0.103717,-0.0198 0.172861,0 0.172861,0.13829 0,0.0543 -0.04939,0.14323 -0.04939,0.084 -0.148167,0.18768 -0.09384,0.0988 -0.276577,0.16792 -0.182739,0.0691 -0.409928,0.0691 -0.474134,0 -0.805039,-0.32103 z m 0.02469,-0.94826 h 1.313745 q -0.02963,-0.34572 -0.202495,-0.48895 -0.172861,-0.14323 -0.404989,-0.14323 -0.256822,0 -0.454377,0.18274 -0.197556,0.1778 -0.251884,0.44944 z"
       id="text2"
       style="font-size:4.93889px;line-height:1.25;font-family:'CMU Typewriter Text';-inkscape-font-specification:'CMU Typewriter Text';text-align:center;text-anchor:middle;stroke-width:0.264583"
       aria-label="data_file" />
    <rect
       style="fill:#ffffff;stroke:#000000;stroke-width:0.176389;stroke-linecap:round;stroke-linejoin:round"
       id="rect3"
       width="31.165911"
       height="8.7062511"
       x="126.0516"
       y="119.8058"
       ry="1.1356" />
    <path
       d="m 129.96431,126.20574 q 0,-0.15311 0.2025,-0.15311 h 0.21731 v -2.62255 h -0.22225 q -0.19756,0 -0.19756,-0.14817 0,-0.1531 0.2025,-0.1531 h 0.36054 q 0.12841,0 0.16298,0.0444 0.0346,0.0444 0.0346,0.16792 0.2667,-0.24201 0.62724,-0.24201 0.39511,0 0.67663,0.32103 0.28646,0.31609 0.28646,0.77047 0,0.46425 -0.30622,0.78034 -0.30127,0.31609 -0.7112,0.31609 -0.32596,0 -0.57291,-0.25188 v 1.01741 h 0.21731 q 0.2025,0 0.2025,0.15311 0,0.14816 -0.19756,0.14816 h -0.78528 q -0.19756,0 -0.19756,-0.14816 z m 0.76059,-1.8916 q 0,0.22225 0.14817,0.44944 0.14817,0.22225 0.40993,0.22225 0.27164,0 0.47907,-0.22719 0.21237,-0.22719 0.21237,-0.56797 0,-0.32597 -0.19262,-0.5581 -0.18767,-0.23212 -0.45931,-0.23212 -0.23213,0 -0.41487,0.16792 -0.18274,0.16792 -0.18274,0.38523 z m 2.05952,0.79516 q 0,-0.1531 0.20249,-0.1531 h 0.63712 v -2.41512 h -0.64206 q -0.19755,0 -0.19755,-0.14817 0,-0.1531 0.20249,-0.1531 h 0.78035 q 0.12347,0 0.15804,0.0444 0.0395,0.0395 0.0395,0.15804 v 2.5139 h 0.64206 q 0.0593,0 0.0889,0.005 0.0346,0.005 0.0691,0.0444 0.0395,0.0346 0.0395,0.10371 0,0.14817 -0.19755,0.14817 h -1.6249 q -0.19755,0 -0.19755,-0.14817 z m 2.58797,-0.91863 q 0,-0.45932 0.29634,-0.78035 0.30127,-0.32596 0.71614,-0.32596 0.41486,0 0.7112,0.32596 0.30127,0.32103 0.30127,0.78035 0,0.45932 -0.30127,0.78034 -0.29634,0.31609 -0.7112,0.31609 -0.41487,0 -0.71614,-0.31609 -0.29634,-0.31609 -0.29634,-0.78034 z m 0.34079,-0.0346 q 0,0.34078 0.19755,0.58772 0.19756,0.24201 0.47414,0.24201 0.27657,0 0.47413,-0.24201 0.19756,-0.24694 0.19756,-0.58772 0,-0.33091 -0.2025,-0.54822 -0.19755,-0.22225 -0.46919,-0.22225 -0.27164,0 -0.47414,0.22225 -0.19755,0.21731 -0.19755,0.54822 z m 2.09408,-0.87419 q 0,-0.1531 0.2025,-0.1531 h 0.42968 v -0.40499 q 0,-0.0642 0.005,-0.0988 0.005,-0.0346 0.0445,-0.0691 0.0444,-0.0346 0.12347,-0.0346 0.1136,0 0.13829,0.0543 0.0296,0.0494 0.0296,0.14817 v 0.40499 h 0.80997 q 0.0593,0 0.0889,0.005 0.0346,0.005 0.0692,0.0444 0.0395,0.0346 0.0395,0.10371 0,0.14817 -0.19756,0.14817 h -0.80997 v 1.17546 q 0,0.0691 0.005,0.11853 0.01,0.0444 0.0395,0.11853 0.0346,0.0691 0.11853,0.10866 0.084,0.0346 0.21731,0.0346 0.079,0 0.15805,-0.0198 0.079,-0.0247 0.15804,-0.10865 0.084,-0.0889 0.084,-0.22719 0,-0.0543 0.005,-0.0889 0.01,-0.0346 0.0494,-0.0642 0.0395,-0.0346 0.11359,-0.0346 0.079,0 0.11854,0.0346 0.0445,0.0346 0.0494,0.0692 0.005,0.0296 0.005,0.0889 0,0.30621 -0.23212,0.47907 -0.23213,0.17286 -0.5334,0.17286 -0.30128,0 -0.49883,-0.15804 -0.19756,-0.16299 -0.19756,-0.49389 v -1.20509 h -0.43462 q -0.19756,0 -0.19756,-0.14817 z m 2.74603,2.27189 q 0,-0.0346 0.01,-0.0691 0.01,-0.0296 0.0593,-0.0692 0.0543,-0.0346 0.13829,-0.0346 h 1.62489 q 0.1136,0 0.15805,0.0593 0.0445,0.0593 0.0445,0.11853 0,0.0642 -0.0494,0.1136 -0.0445,0.0543 -0.16298,0.0543 h -1.61996 q -0.20249,-0.005 -0.20249,-0.17286 z m 2.52377,-0.44944 q 0,-0.14816 0.20249,-0.14816 h 0.49883 v -1.52612 h -0.49883 q -0.19755,0 -0.19755,-0.14817 0,-0.1531 0.20249,-0.1531 h 0.49389 v -0.26176 q 0,-0.30621 0.22719,-0.47908 0.23213,-0.1778 0.54821,-0.1778 0.47414,0 0.47414,0.29634 0,0.0988 -0.0692,0.15804 -0.0642,0.0593 -0.14322,0.0593 -0.079,0 -0.13335,-0.0494 -0.0494,-0.0543 -0.0692,-0.0988 -0.0148,-0.0444 -0.0148,-0.0642 -0.084,0 -0.14323,0.01 -0.0543,0.005 -0.14817,0.0395 -0.0889,0.0296 -0.13829,0.11853 -0.0494,0.084 -0.0494,0.21731 v 0.23213 h 0.60255 q 0.0593,0 0.0889,0.005 0.0346,0.005 0.0691,0.0444 0.0395,0.0346 0.0395,0.10371 0,0.14817 -0.19755,0.14817 h -0.60255 v 1.52612 h 0.49883 q 0.2025,0 0.2025,0.1531 0,0.14817 -0.2025,0.14817 h -1.33844 q -0.20249,0 -0.20249,-0.15311 z m 2.77071,0.005 q 0,-0.1531 0.2025,-0.1531 h 0.5976 v -1.52612 h -0.55809 q -0.2025,0 -0.2025,-0.15311 0,-0.14816 0.2025,-0.14816 h 0.70132 q 0.12347,0 0.15804,0.0444 0.0395,0.0395 0.0395,0.15804 v 1.6249 h 0.51858 q 0.20249,0 0.20249,0.1531 0,0.14817 -0.20249,0.14817 h -1.45697 q -0.2025,0 -0.2025,-0.14817 z m 0.71614,-2.44969 q -0.0691,-0.0741 -0.0691,-0.1778 0,-0.10371 0.0691,-0.17286 0.0741,-0.0741 0.1778,-0.0741 0.10372,0 0.17286,0.0741 0.0741,0.0692 0.0741,0.17286 0,0.10372 -0.0741,0.1778 -0.0691,0.0691 -0.17286,0.0691 -0.10372,0 -0.1778,-0.0691 z m 1.778,2.44969 q 0,-0.1531 0.20249,-0.1531 h 0.63712 v -2.41512 h -0.64205 q -0.19756,0 -0.19756,-0.14817 0,-0.1531 0.20249,-0.1531 h 0.78035 q 0.12347,0 0.15804,0.0444 0.0395,0.0395 0.0395,0.15804 v 2.5139 h 0.64206 q 0.0593,0 0.0889,0.005 0.0346,0.005 0.0691,0.0444 0.0395,0.0346 0.0395,0.10371 0,0.14817 -0.19756,0.14817 h -1.62489 q -0.19756,0 -0.19756,-0.14817 z m 2.909,-0.14323 q -0.3309,-0.32596 -0.3309,-0.78034 0,-0.45438 0.31115,-0.77541 0.31115,-0.32596 0.75071,-0.32596 0.45932,0 0.70626,0.30127 0.25188,0.29633 0.25188,0.74577 0,0.0642 -0.0148,0.10372 -0.0148,0.0395 -0.0494,0.0593 -0.0296,0.0148 -0.0593,0.0197 -0.0247,0 -0.0741,0 h -1.47179 q 0.0593,0.30621 0.29139,0.48895 0.23707,0.18274 0.52847,0.18274 0.38523,0 0.51364,-0.29633 0.0247,-0.0691 0.0593,-0.0889 0.0346,-0.0198 0.10371,-0.0198 0.17286,0 0.17286,0.13829 0,0.0543 -0.0494,0.14323 -0.0494,0.084 -0.14817,0.18768 -0.0938,0.0988 -0.27658,0.16792 -0.18274,0.0691 -0.40993,0.0691 -0.47413,0 -0.80504,-0.32103 z m 0.0247,-0.94826 h 1.31374 q -0.0296,-0.34572 -0.20249,-0.48895 -0.17286,-0.14323 -0.40499,-0.14323 -0.25682,0 -0.45438,0.18274 -0.19755,0.1778 -0.25188,0.44944 z"
       id="text3"
       style="font-size:4.93889px;line-height:1.25;font-family:'CMU Typewriter Text';-inkscape-font-specification:'CMU Typewriter Text';text-align:center;text-anchor:middle;stroke-width:0.264583"
       aria-label="plot_file" />
    <rect
       style="fill:#ffffff;stroke:#000000;stroke-width:0.176389;stroke-linecap:round;stroke-linejoin:round"
       id="rect5"
       width="31.165911"
       height="8.7062511"
       x="-48.073734"
       y="119.8058"
       ry="1.1356" />
    <path
       d="m -45.131509,125.1093 q 0,-0.1531 0.202494,-0.1531 h 0.597606 v -1.52612 h -0.558095 q -0.202494,0 -0.202494,-0.15311 0,-0.14816 0.202494,-0.14816 h 0.701323 q 0.123472,0 0.158044,0.0444 0.03951,0.0395 0.03951,0.15804 v 1.6249 h 0.518584 q 0.202494,0 0.202494,0.1531 0,0.14817 -0.202494,0.14817 h -1.456973 q -0.202494,0 -0.202494,-0.14817 z m 0.716139,-2.44969 q -0.06914,-0.0741 -0.06914,-0.1778 0,-0.10371 0.06914,-0.17286 0.07408,-0.0741 0.1778,-0.0741 0.103716,0 0.172861,0.0741 0.07408,0.0692 0.07408,0.17286 0,0.10372 -0.07408,0.1778 -0.06914,0.0691 -0.172861,0.0691 -0.103717,0 -0.1778,-0.0691 z m 1.550809,2.44969 q 0,-0.1531 0.202495,-0.1531 h 0.217311 v -1.52612 h -0.22225 q -0.197556,0 -0.197556,-0.14817 0,-0.1531 0.202495,-0.1531 h 0.360539 q 0.138289,0 0.167922,0.0494 0.02963,0.0444 0.02963,0.18274 0.261761,-0.26177 0.646995,-0.26177 0.642056,0 0.642056,0.7112 v 1.14583 h 0.217311 q 0.202494,0 0.202494,0.1531 0,0.14817 -0.197555,0.14817 h -0.755651 q -0.202494,0 -0.202494,-0.14817 0,-0.1531 0.202494,-0.1531 h 0.192617 v -1.12113 q 0,-0.23213 -0.07408,-0.33091 -0.06914,-0.10371 -0.256822,-0.10371 -0.227189,0 -0.424745,0.17286 -0.192617,0.17286 -0.192617,0.5087 v 0.87419 h 0.217311 q 0.202495,0 0.202495,0.1531 0,0.14817 -0.197556,0.14817 h -0.785283 q -0.197556,0 -0.197556,-0.14817 z m 2.592916,1.09644 q 0,-0.15311 0.202494,-0.15311 h 0.217311 v -2.62255 h -0.22225 q -0.197555,0 -0.197555,-0.14817 0,-0.1531 0.202494,-0.1531 h 0.360539 q 0.128411,0 0.162983,0.0444 0.03457,0.0444 0.03457,0.16792 0.2667,-0.24201 0.627239,-0.24201 0.395111,0 0.676628,0.32103 0.286455,0.31609 0.286455,0.77047 0,0.46425 -0.306211,0.78034 -0.301272,0.31609 -0.7112,0.31609 -0.325967,0 -0.572911,-0.25188 v 1.01741 h 0.217311 q 0.202494,0 0.202494,0.15311 0,0.14816 -0.197555,0.14816 h -0.785284 q -0.197555,0 -0.197555,-0.14816 z m 0.760589,-1.8916 q 0,0.22225 0.148166,0.44944 0.148167,0.22225 0.409928,0.22225 0.271639,0 0.479072,-0.22719 0.212373,-0.22719 0.212373,-0.56797 0,-0.32597 -0.192617,-0.5581 -0.187678,-0.23212 -0.459317,-0.23212 -0.232128,0 -0.414867,0.16792 -0.182738,0.16792 -0.182738,0.38523 z m 1.832326,-1.03223 q 0,-0.1531 0.202494,-0.1531 h 0.360539 q 0.123472,0 0.158045,0.0444 0.03951,0.0395 0.03951,0.15804 v 1.3335 q 0,0.079 0.0049,0.12347 0.0099,0.0395 0.03951,0.0938 0.03457,0.0543 0.118533,0.079 0.0889,0.0247 0.227189,0.0247 0.07408,0 0.153106,-0.0148 0.08396,-0.0198 0.182738,-0.0642 0.09878,-0.0494 0.158045,-0.15805 0.06421,-0.10865 0.06421,-0.2667 v -1.05198 h -0.222251 q -0.197555,0 -0.197555,-0.14817 0,-0.1531 0.202494,-0.1531 h 0.360539 q 0.123473,0 0.158045,0.0444 0.03951,0.0395 0.03951,0.15804 v 1.6249 h 0.22225 q 0.197556,0 0.197556,0.14816 0,0.15311 -0.202495,0.15311 h -0.360539 q -0.05927,0 -0.09384,-0.005 -0.02963,-0.005 -0.06914,-0.0395 -0.03457,-0.0395 -0.03457,-0.1136 -0.246945,0.18768 -0.587728,0.18768 -0.701323,0 -0.701323,-0.59266 v -1.26436 h -0.22225 q -0.197555,0 -0.197555,-0.14817 z m 2.657121,0 q 0,-0.1531 0.202494,-0.1531 h 0.429684 v -0.40499 q 0,-0.0642 0.0049,-0.0988 0.0049,-0.0346 0.04445,-0.0691 0.04445,-0.0346 0.123473,-0.0346 0.113594,0 0.138289,0.0543 0.02963,0.0494 0.02963,0.14817 v 0.40499 h 0.809978 q 0.05927,0 0.0889,0.005 0.03457,0.005 0.06914,0.0444 0.03951,0.0346 0.03951,0.10371 0,0.14817 -0.197556,0.14817 h -0.809978 v 1.17546 q 0,0.0691 0.0049,0.11853 0.0099,0.0444 0.03951,0.11853 0.03457,0.0691 0.118533,0.10866 0.08396,0.0346 0.217312,0.0346 0.07902,0 0.158044,-0.0198 0.07902,-0.0247 0.158044,-0.10865 0.08396,-0.0889 0.08396,-0.22719 0,-0.0543 0.0049,-0.0889 0.0099,-0.0346 0.04939,-0.0642 0.03951,-0.0346 0.113595,-0.0346 0.07902,0 0.118533,0.0346 0.04445,0.0346 0.04939,0.0692 0.0049,0.0296 0.0049,0.0889 0,0.30621 -0.232128,0.47907 -0.232128,0.17286 -0.5334,0.17286 -0.301272,0 -0.498828,-0.15804 -0.197555,-0.16299 -0.197555,-0.49389 v -1.20509 h -0.434623 q -0.197555,0 -0.197555,-0.14817 z m 2.746021,2.27189 q 0,-0.0346 0.0099,-0.0691 0.0099,-0.0296 0.05927,-0.0692 0.05433,-0.0346 0.138289,-0.0346 h 1.624895 q 0.113594,0 0.158044,0.0593 0.04445,0.0593 0.04445,0.11853 0,0.0642 -0.04939,0.1136 -0.04445,0.0543 -0.162984,0.0543 h -1.619956 q -0.202494,-0.005 -0.202494,-0.17286 z m 2.52377,-0.44944 q 0,-0.14816 0.202494,-0.14816 h 0.498828 v -1.52612 h -0.498828 q -0.197555,0 -0.197555,-0.14817 0,-0.1531 0.202494,-0.1531 h 0.493889 v -0.26176 q 0,-0.30621 0.227189,-0.47908 0.232128,-0.1778 0.548217,-0.1778 0.474133,0 0.474133,0.29634 0,0.0988 -0.06914,0.15804 -0.06421,0.0593 -0.143228,0.0593 -0.07902,0 -0.13335,-0.0494 -0.04939,-0.0543 -0.06914,-0.0988 -0.01482,-0.0444 -0.01482,-0.0642 -0.08396,0 -0.143228,0.01 -0.05433,0.005 -0.148166,0.0395 -0.0889,0.0296 -0.138289,0.11853 -0.04939,0.084 -0.04939,0.21731 v 0.23213 h 0.602544 q 0.05927,0 0.0889,0.005 0.03457,0.005 0.06914,0.0444 0.03951,0.0346 0.03951,0.10371 0,0.14817 -0.197556,0.14817 h -0.602544 v 1.52612 h 0.498828 q 0.202494,0 0.202494,0.1531 0,0.14817 -0.202494,0.14817 h -1.33844 q -0.202494,0 -0.202494,-0.15311 z m 2.770716,0.005 q 0,-0.1531 0.202495,-0.1531 h 0.597606 v -1.52612 h -0.558095 q -0.202494,0 -0.202494,-0.15311 0,-0.14816 0.202494,-0.14816 h 0.701322 q 0.123473,0 0.158045,0.0444 0.03951,0.0395 0.03951,0.15804 v 1.6249 h 0.518583 q 0.202495,0 0.202495,0.1531 0,0.14817 -0.202495,0.14817 h -1.456972 q -0.202495,0 -0.202495,-0.14817 z m 0.716139,-2.44969 q -0.06914,-0.0741 -0.06914,-0.1778 0,-0.10371 0.06914,-0.17286 0.07408,-0.0741 0.177801,-0.0741 0.103716,0 0.172861,0.0741 0.07408,0.0692 0.07408,0.17286 0,0.10372 -0.07408,0.1778 -0.06915,0.0691 -0.172861,0.0691 -0.103717,0 -0.177801,-0.0691 z m 1.777998,2.44969 q 0,-0.1531 0.202495,-0.1531 h 0.637117 v -2.41512 h -0.642056 q -0.197556,0 -0.197556,-0.14817 0,-0.1531 0.202495,-0.1531 h 0.780344 q 0.123473,0 0.158045,0.0444 0.03951,0.0395 0.03951,0.15804 v 2.5139 h 0.642056 q 0.05927,0 0.0889,0.005 0.03457,0.005 0.06914,0.0444 0.03951,0.0346 0.03951,0.10371 0,0.14817 -0.197555,0.14817 h -1.624895 q -0.197556,0 -0.197556,-0.14817 z m 2.909004,-0.14323 q -0.330906,-0.32596 -0.330906,-0.78034 0,-0.45438 0.31115,-0.77541 0.31115,-0.32596 0.750711,-0.32596 0.459317,0 0.706262,0.30127 0.251883,0.29633 0.251883,0.74577 0,0.0642 -0.01482,0.10372 -0.01482,0.0395 -0.04939,0.0593 -0.02963,0.0148 -0.05927,0.0197 -0.02469,0 -0.07408,0 h -1.47179 q 0.05927,0.30621 0.291395,0.48895 0.237067,0.18274 0.528461,0.18274 0.385233,0 0.513645,-0.29633 0.02469,-0.0691 0.05927,-0.0889 0.03457,-0.0198 0.103717,-0.0198 0.172861,0 0.172861,0.13829 0,0.0543 -0.04939,0.14323 -0.04939,0.084 -0.148166,0.18768 -0.09384,0.0988 -0.276578,0.16792 -0.182739,0.0691 -0.409928,0.0691 -0.474134,0 -0.805039,-0.32103 z m 0.02469,-0.94826 h 1.313745 q -0.02963,-0.34572 -0.202495,-0.48895 -0.172861,-0.14323 -0.404989,-0.14323 -0.256822,0 -0.454377,0.18274 -0.197556,0.1778 -0.251884,0.44944 z"
       id="text5"
       style="font-size:4.93889px;line-height:1.25;font-family:'CMU Typewriter Text';-inkscape-font-specification:'CMU Typewriter Text';text-align:center;text-anchor:middle;stroke-width:0.264583"
       aria-label="input_file" />
    <rect
       style="fill:#ffffff;stroke:#000000;stroke-width:0.176389;stroke-linecap:round;stroke-linejoin:round"
       id="rect6"
       width="31.165911"
       height="8.7062511"
       x="82.520264"
       y="119.8058"
       ry="4.3531256" />
    <path
       d="m 92.915268,126.20574 q 0,-0.15311 0.202494,-0.15311 h 0.217312 v -2.62255 h -0.22225 q -0.197556,0 -0.197556,-0.14817 0,-0.1531 0.202494,-0.1531 h 0.360539 q 0.128412,0 0.162984,0.0444 0.03457,0.0444 0.03457,0.16792 0.2667,-0.24201 0.627239,-0.24201 0.395111,0 0.676628,0.32103 0.286456,0.31609 0.286456,0.77047 0,0.46425 -0.306212,0.78034 -0.301272,0.31609 -0.7112,0.31609 -0.325967,0 -0.572911,-0.25188 v 1.01741 h 0.217311 q 0.202495,0 0.202495,0.15311 0,0.14816 -0.197556,0.14816 h -0.785283 q -0.197556,0 -0.197556,-0.14816 z m 0.760589,-1.8916 q 0,0.22225 0.148167,0.44944 0.148166,0.22225 0.409928,0.22225 0.271639,0 0.479072,-0.22719 0.212372,-0.22719 0.212372,-0.56797 0,-0.32597 -0.192617,-0.5581 -0.187677,-0.23212 -0.459316,-0.23212 -0.232128,0 -0.414867,0.16792 -0.182739,0.16792 -0.182739,0.38523 z m 2.059515,0.79516 q 0,-0.1531 0.202495,-0.1531 h 0.637116 v -2.41512 h -0.642055 q -0.197556,0 -0.197556,-0.14817 0,-0.1531 0.202495,-0.1531 h 0.780344 q 0.123473,0 0.158045,0.0444 0.03951,0.0395 0.03951,0.15804 v 2.5139 h 0.642056 q 0.05927,0 0.0889,0.005 0.03457,0.005 0.06914,0.0444 0.03951,0.0346 0.03951,0.10371 0,0.14817 -0.197555,0.14817 h -1.624895 q -0.197556,0 -0.197556,-0.14817 z m 2.587977,-0.91863 q 0,-0.45932 0.296333,-0.78035 0.301272,-0.32596 0.716139,-0.32596 0.414867,0 0.711199,0.32596 0.30127,0.32103 0.30127,0.78035 0,0.45932 -0.30127,0.78034 -0.296332,0.31609 -0.711199,0.31609 -0.414867,0 -0.716139,-0.31609 -0.296333,-0.31609 -0.296333,-0.78034 z m 0.340783,-0.0346 q 0,0.34078 0.197556,0.58772 0.197555,0.24201 0.474133,0.24201 0.276578,0 0.474133,-0.24201 0.197556,-0.24694 0.197556,-0.58772 0,-0.33091 -0.202494,-0.54822 -0.197556,-0.22225 -0.469195,-0.22225 -0.271639,0 -0.474133,0.22225 -0.197556,0.21731 -0.197556,0.54822 z m 2.094088,-0.87419 q 0,-0.1531 0.20249,-0.1531 h 0.42969 v -0.40499 q 0,-0.0642 0.005,-0.0988 0.005,-0.0346 0.0444,-0.0691 0.0444,-0.0346 0.12347,-0.0346 0.11359,0 0.13829,0.0543 0.0296,0.0494 0.0296,0.14817 v 0.40499 h 0.80998 q 0.0593,0 0.0889,0.005 0.0346,0.005 0.0691,0.0444 0.0395,0.0346 0.0395,0.10371 0,0.14817 -0.19755,0.14817 h -0.80998 v 1.17546 q 0,0.0691 0.005,0.11853 0.01,0.0444 0.0395,0.11853 0.0346,0.0691 0.11853,0.10866 0.084,0.0346 0.21732,0.0346 0.079,0 0.15804,-0.0198 0.079,-0.0247 0.15804,-0.10865 0.084,-0.0889 0.084,-0.22719 0,-0.0543 0.005,-0.0889 0.01,-0.0346 0.0494,-0.0642 0.0395,-0.0346 0.1136,-0.0346 0.079,0 0.11853,0.0346 0.0444,0.0346 0.0494,0.0692 0.005,0.0296 0.005,0.0889 0,0.30621 -0.23213,0.47907 -0.23213,0.17286 -0.5334,0.17286 -0.30127,0 -0.49883,-0.15804 -0.19755,-0.16299 -0.19755,-0.49389 v -1.20509 h -0.43463 q -0.19755,0 -0.19755,-0.14817 z"
       id="text6"
       style="font-size:4.93889px;line-height:1.25;font-family:'CMU Typewriter Text';-inkscape-font-specification:'CMU Typewriter Text';text-align:center;text-anchor:middle;stroke-width:0.264583"
       aria-label="plot" />
    <path
       d="m 1.9694137,133.68233 q 0,-0.0889 0.00494,-0.1136 0.00988,-0.0296 0.049389,-0.0691 l 0.9482669,-1.05692 q 0.5185835,-0.58279 0.5185835,-1.0915 0,-0.3309 -0.1728612,-0.56797 -0.1728611,-0.23707 -0.4889501,-0.23707 -0.2173112,0 -0.4000501,0.13335 -0.1827389,0.13335 -0.2667,0.37042 0.014817,-0.005 0.064205,-0.005 0.1234723,0 0.1926167,0.079 0.069145,0.0741 0.069145,0.1778 0,0.13335 -0.0889,0.19756 -0.083961,0.0642 -0.1679223,0.0642 -0.034572,0 -0.079022,-0.005 -0.04445,-0.01 -0.1135945,-0.079 -0.069145,-0.0691 -0.069145,-0.19261 0,-0.34573 0.2617612,-0.61737 0.2617612,-0.27657 0.6618113,-0.27657 0.4543779,0 0.7507113,0.27164 0.2963334,0.2667 0.2963334,0.6865 0,0.14817 -0.04445,0.28152 -0.04445,0.13335 -0.1037166,0.23706 -0.059267,0.10372 -0.2173112,0.27164 -0.1580445,0.16299 -0.2864556,0.28152 -0.1284112,0.11853 -0.4148668,0.37042 l -0.5235223,0.5087 h 0.8890002 q 0.4346223,0 0.4691945,-0.0395 0.049389,-0.0691 0.1086556,-0.43956 h 0.1234723 l -0.138289,0.85937 z m 2.3607799,-0.81492 v -0.15311 l 1.5162392,-2.31633 q 0.039511,-0.0593 0.098778,-0.0593 0.054328,0 0.064206,0.0247 0.014817,0.0198 0.014817,0.10372 v 2.24719 h 0.493889 v 0.15311 h -0.493889 v 0.42968 q 0,0.14323 0.059267,0.18768 0.059267,0.0445 0.3160889,0.0445 h 0.1037167 v 0.15311 q -0.2024945,-0.0148 -0.671689,-0.0148 -0.4642557,0 -0.6667502,0.0148 v -0.15311 h 0.1037167 q 0.2568223,0 0.316089,-0.0445 0.059267,-0.0444 0.059267,-0.18768 v -0.42968 z m 0.1382889,-0.15311 h 1.2050892 v -1.8422 z m 3.995544,0.96803 v -0.15311 q 0.2617612,0 0.3210279,-0.0296 0.064205,-0.0346 0.064205,-0.19262 v -2.56822 q 0,-0.18274 -0.064205,-0.22719 -0.064206,-0.0494 -0.3210279,-0.0494 v -0.1531 l 0.7112002,-0.0543 v 1.71873 h 0.00494 q 0.079022,-0.1778 0.2568222,-0.32597 0.1778001,-0.14816 0.4543779,-0.14816 0.3704163,0 0.5185833,0.18274 0.108656,0.12347 0.128411,0.26176 0.02469,0.13829 0.02469,0.49389 v 0.94332 q 0.0049,0.10372 0.08396,0.12842 0.07902,0.0198 0.301272,0.0198 v 0.15311 q -0.503767,-0.0148 -0.553156,-0.0148 -0.03951,0 -0.5580941,0.0148 v -0.15311 q 0.2617611,0 0.3210281,-0.0296 0.0642,-0.0346 0.0642,-0.19262 v -1.15076 q 0,-0.25188 -0.07902,-0.40005 -0.07408,-0.14817 -0.2864555,-0.14817 -0.2568223,0 -0.4642557,0.21731 -0.2024945,0.21238 -0.2024945,0.57292 v 0.90875 q 0,0.15805 0.059267,0.19262 0.064206,0.0296 0.3259668,0.0296 v 0.15311 q -0.5037668,-0.0148 -0.5531557,-0.0148 -0.039511,0 -0.5580946,0.0148 z m 3.0472875,-0.2667 q -0.325967,-0.32103 -0.325967,-0.79023 0,-0.46919 0.316089,-0.80997 0.321028,-0.34573 0.780345,-0.34573 0.449439,0 0.770466,0.34079 0.321028,0.34078 0.321028,0.81491 0,0.46426 -0.325967,0.79023 -0.321027,0.32103 -0.770466,0.32103 -0.439562,0 -0.765528,-0.32103 z m 0.08396,-0.82974 q 0,0.47908 0.123472,0.69639 0.192617,0.3309 0.563034,0.3309 0.182738,0 0.335844,-0.0988 0.153106,-0.0988 0.237067,-0.26671 0.108655,-0.21731 0.108655,-0.66181 0,-0.47413 -0.128411,-0.6865 -0.192617,-0.32103 -0.558094,-0.32103 -0.158045,0 -0.316089,0.084 -0.153106,0.084 -0.246945,0.24695 -0.118533,0.21731 -0.118533,0.67662 z m 2.079263,-0.87912 v -0.1531 l 0.726017,-0.0543 v 1.63971 q 0,0.11853 0.0099,0.18768 0.0099,0.0691 0.04939,0.14816 0.03951,0.079 0.13335,0.11854 0.09384,0.0346 0.242005,0.0346 0.2667,0 0.429684,-0.21731 0.167922,-0.22225 0.167922,-0.54822 v -0.87912 q 0,-0.18274 -0.06421,-0.22719 -0.0642,-0.0494 -0.321027,-0.0494 v -0.1531 l 0.726016,-0.0543 v 1.7533 q 0,0.18274 0.06421,0.23213 0.06421,0.0445 0.321028,0.0445 v 0.15311 l -0.7112,0.0543 v -0.44451 q -0.207434,0.44451 -0.637117,0.44451 -0.217311,0 -0.365478,-0.0543 -0.148167,-0.0543 -0.22225,-0.12347 -0.07408,-0.0692 -0.113594,-0.2025 -0.03951,-0.13335 -0.04445,-0.21237 -0.0049,-0.084 -0.0049,-0.24201 v -0.74083 q 0,-0.33585 -0.04939,-0.39511 -0.04939,-0.0593 -0.335845,-0.0593 z m 2.72132,1.97556 v -0.15311 q 0.261761,0 0.321028,-0.0296 0.06421,-0.0346 0.06421,-0.19262 v -1.32362 q 0,-0.18274 -0.06421,-0.22719 -0.06421,-0.0494 -0.321028,-0.0494 v -0.1531 l 0.686506,-0.0543 v 0.54328 q 0.06914,-0.21238 0.217311,-0.37536 0.148167,-0.16792 0.390172,-0.16792 0.158045,0 0.261761,0.0889 0.103717,0.0889 0.103717,0.21237 0,0.10866 -0.06914,0.16298 -0.06421,0.0543 -0.143228,0.0543 -0.0889,0 -0.153106,-0.0543 -0.05927,-0.0593 -0.05927,-0.15804 0,-0.0593 0.02469,-0.10372 0.02963,-0.0494 0.04939,-0.0642 0.02469,-0.0198 0.03951,-0.0247 -0.0099,-0.005 -0.05433,-0.005 -0.271639,0 -0.429683,0.27164 -0.153106,0.27164 -0.153106,0.65687 v 0.76059 q 0,0.14323 0.05927,0.18768 0.05927,0.0445 0.316089,0.0445 h 0.103717 v 0.15311 q -0.197556,-0.0148 -0.627239,-0.0148 -0.05927,0 -0.153106,0.005 -0.09384,0 -0.217311,0.005 -0.123472,0.005 -0.192617,0.005 z m 1.955794,-0.0642 v -0.65193 q 0,-0.0543 0,-0.0741 0.0049,-0.0197 0.01976,-0.0346 0.01482,-0.0148 0.04445,-0.0148 0.03457,0 0.04445,0.0148 0.01482,0.0148 0.02469,0.0692 0.07408,0.34078 0.232127,0.52352 0.162984,0.1778 0.454378,0.1778 0.276578,0 0.414867,-0.12347 0.143228,-0.12348 0.143228,-0.32597 0,-0.36054 -0.513645,-0.45438 -0.296333,-0.0593 -0.419805,-0.0988 -0.123473,-0.0395 -0.232128,-0.12841 -0.212373,-0.17286 -0.212373,-0.4198 0,-0.24695 0.187678,-0.42475 0.187678,-0.18274 0.602545,-0.18274 0.276578,0 0.464256,0.13829 0.05433,-0.0445 0.08396,-0.079 0.06421,-0.0593 0.09878,-0.0593 0.03951,0 0.04445,0.0247 0.0099,0.0247 0.0099,0.0938 v 0.49883 q 0,0.0543 -0.0049,0.0741 0,0.0198 -0.01482,0.0346 -0.01482,0.01 -0.04445,0.01 -0.05433,0 -0.05927,-0.0445 -0.03951,-0.59761 -0.57785,-0.59761 -0.291395,0 -0.424745,0.1136 -0.128411,0.10865 -0.128411,0.26176 0,0.084 0.03951,0.14817 0.03951,0.0642 0.0889,0.10371 0.05433,0.0346 0.148167,0.0692 0.09878,0.0346 0.158045,0.0494 0.05927,0.01 0.172861,0.0346 0.395111,0.0741 0.563033,0.23706 0.207434,0.20744 0.207434,0.4692 0,0.29139 -0.197556,0.48895 -0.197556,0.19756 -0.597606,0.19756 -0.321028,0 -0.543278,-0.21238 -0.02963,0.0296 -0.05433,0.0543 -0.01976,0.0247 -0.02963,0.0346 -0.0049,0.01 -0.0099,0.0148 0,0.005 -0.0049,0.01 -0.09878,0.0988 -0.123473,0.0988 -0.03951,0 -0.04939,-0.0247 -0.0049,-0.0247 -0.0049,-0.0938 z"
       id="text9"
       style="font-size:4.93889px;line-height:1.25;font-family:'CMU Serif';-inkscape-font-specification:'CMU Serif';text-align:center;text-anchor:middle;stroke-width:0.264583"
       aria-label="24 hours" />
    <path
       d="m 87.627808,130.86222 v -0.1531 q 0.592667,0 0.898878,-0.31609 0.08396,0 0.09878,0.0197 0.01482,0.0198 0.01482,0.10866 v 2.77071 q 0,0.14817 0.06914,0.19262 0.07408,0.0445 0.390172,0.0445 h 0.158044 v 0.15311 q -0.172861,-0.0148 -0.8001,-0.0148 -0.627239,0 -0.8001,0.0148 v -0.15311 h 0.158045 q 0.31115,0 0.385233,-0.0445 0.07408,-0.0444 0.07408,-0.19262 v -2.55834 q -0.256822,0.12841 -0.646994,0.12841 z m 2.276818,2.02495 q 0,-0.14817 0.07902,-0.2025 0.07902,-0.0593 0.162983,-0.0593 0.113595,0 0.1778,0.0741 0.06914,0.0691 0.06914,0.16792 0,0.0988 -0.06914,0.17286 -0.06421,0.0692 -0.1778,0.0692 -0.05433,0 -0.08396,-0.01 0.06421,0.22719 0.261761,0.39017 0.202495,0.16298 0.464256,0.16298 0.330905,0 0.528461,-0.32102 0.118533,-0.20744 0.118533,-0.67663 0,-0.41487 -0.0889,-0.6223 -0.138289,-0.31609 -0.419805,-0.31609 -0.40005,0 -0.637117,0.34572 -0.02963,0.0445 -0.06421,0.0445 -0.04939,0 -0.05927,-0.0247 -0.0099,-0.0296 -0.0099,-0.10372 v -1.46191 q 0,-0.11853 0.04939,-0.11853 0.01976,0 0.05927,0.0148 0.311151,0.13829 0.656873,0.13829 0.3556,0 0.671689,-0.14323 0.02469,-0.0148 0.03951,-0.0148 0.04939,0 0.04939,0.0543 0,0.0198 -0.03951,0.079 -0.03951,0.0543 -0.123472,0.12841 -0.08396,0.0741 -0.192617,0.14323 -0.108656,0.0691 -0.2667,0.11853 -0.158045,0.0445 -0.330906,0.0445 -0.207433,0 -0.419806,-0.0642 v 0.96309 q 0.256823,-0.25189 0.627239,-0.25189 0.395112,0 0.666751,0.32103 0.271639,0.31609 0.271639,0.76059 0,0.46426 -0.321028,0.78528 -0.321028,0.31609 -0.75565,0.31609 -0.395112,0 -0.646995,-0.28151 -0.246945,-0.28152 -0.246945,-0.6223 z m 4.030117,0.73095 v -0.65193 q 0,-0.0543 0,-0.0741 0.0049,-0.0197 0.01976,-0.0346 0.01482,-0.0148 0.04445,-0.0148 0.03457,0 0.04445,0.0148 0.01482,0.0148 0.0247,0.0692 0.07408,0.34078 0.232128,0.52352 0.162983,0.1778 0.454377,0.1778 0.276578,0 0.414867,-0.12347 0.143228,-0.12348 0.143228,-0.32597 0,-0.36054 -0.513645,-0.45438 -0.296333,-0.0593 -0.419805,-0.0988 -0.123472,-0.0395 -0.232128,-0.12841 -0.212372,-0.17286 -0.212372,-0.4198 0,-0.24695 0.187677,-0.42475 0.187678,-0.18274 0.602545,-0.18274 0.276578,0 0.464256,0.13829 0.05433,-0.0445 0.08396,-0.079 0.06421,-0.0593 0.09878,-0.0593 0.03951,0 0.04445,0.0247 0.0099,0.0247 0.0099,0.0938 v 0.49883 q 0,0.0543 -0.0049,0.0741 0,0.0198 -0.01482,0.0346 -0.01482,0.01 -0.04445,0.01 -0.05433,0 -0.05927,-0.0445 -0.03951,-0.59761 -0.57785,-0.59761 -0.291394,0 -0.424744,0.1136 -0.128412,0.10865 -0.128412,0.26176 0,0.084 0.03951,0.14817 0.03951,0.0642 0.0889,0.10371 0.05433,0.0346 0.148166,0.0692 0.09878,0.0346 0.158045,0.0494 0.05927,0.01 0.172861,0.0346 0.395111,0.0741 0.563033,0.23706 0.207434,0.20744 0.207434,0.4692 0,0.29139 -0.197556,0.48895 -0.197555,0.19756 -0.597606,0.19756 -0.321027,0 -0.543277,-0.21238 -0.02963,0.0296 -0.05433,0.0543 -0.01976,0.0247 -0.02963,0.0346 -0.0049,0.01 -0.0099,0.0148 0,0.005 -0.0049,0.01 -0.09878,0.0988 -0.123473,0.0988 -0.03951,0 -0.04939,-0.0247 -0.0049,-0.0247 -0.0049,-0.0938 z m 1.921224,-1.02235 q 0,-0.46425 0.296333,-0.79516 0.301272,-0.33091 0.730956,-0.33091 0.434622,0 0.656872,0.28152 0.227189,0.28152 0.227189,0.68651 0,0.0741 -0.01976,0.0889 -0.01976,0.0148 -0.103717,0.0148 h -1.37795 q 0,0.50377 0.148166,0.74084 0.207434,0.3309 0.558095,0.3309 0.04939,0 0.103717,-0.01 0.05927,-0.01 0.1778,-0.0494 0.118533,-0.0445 0.22225,-0.15805 0.103716,-0.11359 0.162983,-0.29139 0.01482,-0.0692 0.06421,-0.0692 0.06421,0 0.06421,0.0593 0,0.0444 -0.04939,0.14323 -0.04445,0.0938 -0.13335,0.21237 -0.0889,0.11359 -0.261761,0.20249 -0.172861,0.084 -0.380294,0.084 -0.434623,0 -0.760589,-0.32597 -0.325967,-0.33091 -0.325967,-0.81492 z m 0.414867,-0.15804 h 1.170516 q 0,-0.10372 -0.01976,-0.21731 -0.01482,-0.11854 -0.06914,-0.27658 -0.04939,-0.16299 -0.172861,-0.26176 -0.118533,-0.10372 -0.296333,-0.10372 -0.07902,0 -0.167922,0.0346 -0.08396,0.0346 -0.187678,0.11854 -0.103717,0.079 -0.1778,0.2667 -0.06915,0.18273 -0.07902,0.43956 z m 2.118775,0.97296 q -0.31115,-0.32597 -0.31115,-0.79516 0,-0.4692 0.306211,-0.80504 0.31115,-0.34079 0.765528,-0.34079 0.301272,0 0.528461,0.14323 0.227189,0.14323 0.227189,0.38524 0,0.10865 -0.06421,0.17286 -0.06421,0.0593 -0.162984,0.0593 -0.103717,0 -0.167922,-0.0642 -0.05927,-0.0642 -0.05927,-0.16299 0,-0.0444 0.01482,-0.084 0.01482,-0.0445 0.06914,-0.0889 0.05433,-0.0494 0.148167,-0.0543 -0.1778,-0.18274 -0.528461,-0.18274 -0.251884,0 -0.459317,0.23706 -0.207433,0.23707 -0.207433,0.77541 0,0.28152 0.06914,0.48895 0.06915,0.20743 0.182739,0.31609 0.113595,0.10372 0.22225,0.1531 0.113595,0.0494 0.22225,0.0494 0.484011,0 0.646995,-0.51858 0.01482,-0.0494 0.06421,-0.0494 0.06421,0 0.06421,0.0494 0,0.0247 -0.01976,0.0889 -0.01976,0.0593 -0.07902,0.15804 -0.05927,0.0988 -0.148167,0.18768 -0.08396,0.084 -0.237066,0.14817 -0.148167,0.0593 -0.335845,0.0593 -0.434622,0 -0.750711,-0.32597 z m 2.178041,0.005 q -0.32597,-0.32103 -0.32597,-0.79023 0,-0.46919 0.31609,-0.80997 0.32103,-0.34573 0.78035,-0.34573 0.44944,0 0.77046,0.34079 0.32103,0.34078 0.32103,0.81491 0,0.46426 -0.32596,0.79023 -0.32103,0.32103 -0.77047,0.32103 -0.43956,0 -0.76553,-0.32103 z m 0.084,-0.82974 q 0,0.47908 0.12347,0.69639 0.19262,0.3309 0.56304,0.3309 0.18274,0 0.33584,-0.0988 0.15311,-0.0988 0.23707,-0.26671 0.10865,-0.21731 0.10865,-0.66181 0,-0.47413 -0.12841,-0.6865 -0.19261,-0.32103 -0.55809,-0.32103 -0.15805,0 -0.31609,0.084 -0.15311,0.084 -0.24694,0.24695 -0.11854,0.21731 -0.11854,0.67662 z m 2.07927,1.09644 v -0.15311 q 0.26176,0 0.32102,-0.0296 0.0642,-0.0346 0.0642,-0.19262 v -1.32362 q 0,-0.18274 -0.0642,-0.22719 -0.0642,-0.0494 -0.32102,-0.0494 v -0.1531 l 0.69638,-0.0543 v 0.51858 q 0.23213,-0.51858 0.73095,-0.51858 0.37042,0 0.51859,0.18274 0.10865,0.12347 0.12841,0.26176 0.0247,0.13829 0.0247,0.49389 v 0.94332 q 0.005,0.10372 0.084,0.12842 0.079,0.0198 0.30128,0.0198 v 0.15311 q -0.50377,-0.0148 -0.55316,-0.0148 -0.0395,0 -0.55809,0.0148 v -0.15311 q 0.26176,0 0.32102,-0.0296 0.0642,-0.0346 0.0642,-0.19262 v -1.15076 q 0,-0.25188 -0.079,-0.40005 -0.0741,-0.14817 -0.28646,-0.14817 -0.25682,0 -0.46425,0.21731 -0.2025,0.21238 -0.2025,0.57292 v 0.90875 q 0,0.15805 0.0593,0.19262 0.0642,0.0296 0.32597,0.0296 v 0.15311 q -0.50377,-0.0148 -0.55316,-0.0148 -0.0395,0 -0.55809,0.0148 z m 2.75095,-1.06186 q 0,-0.4692 0.32597,-0.79517 0.3309,-0.32596 0.7754,-0.32596 0.37536,0 0.6223,0.30621 v -1.0668 q 0,-0.18274 -0.0642,-0.22719 -0.0642,-0.0494 -0.32103,-0.0494 v -0.1531 l 0.7112,-0.0543 v 2.9979 q 0,0.18274 0.0642,0.23213 0.0642,0.0445 0.32103,0.0445 v 0.15311 l -0.72602,0.0543 v -0.32597 q -0.25682,0.32597 -0.66181,0.32597 -0.42474,0 -0.73589,-0.32597 -0.31115,-0.32597 -0.31115,-0.79022 z m 0.40993,0.005 q 0,0.45932 0.14322,0.68651 0.19756,0.31609 0.51859,0.31609 0.36548,0 0.58279,-0.34572 0.0543,-0.084 0.0543,-0.18274 v -1.01247 q 0,-0.0988 -0.0543,-0.18274 -0.2025,-0.29634 -0.5334,-0.29634 -0.34573,0 -0.5581,0.31609 -0.1531,0.23707 -0.1531,0.70132 z m 2.32621,0.99272 v -0.65193 q 0,-0.0543 0,-0.0741 0.005,-0.0197 0.0198,-0.0346 0.0148,-0.0148 0.0444,-0.0148 0.0346,0 0.0445,0.0148 0.0148,0.0148 0.0247,0.0692 0.0741,0.34078 0.23212,0.52352 0.16299,0.1778 0.45438,0.1778 0.27658,0 0.41487,-0.12347 0.14323,-0.12348 0.14323,-0.32597 0,-0.36054 -0.51365,-0.45438 -0.29633,-0.0593 -0.4198,-0.0988 -0.12348,-0.0395 -0.23213,-0.12841 -0.21237,-0.17286 -0.21237,-0.4198 0,-0.24695 0.18767,-0.42475 0.18768,-0.18274 0.60255,-0.18274 0.27658,0 0.46425,0.13829 0.0543,-0.0445 0.084,-0.079 0.0642,-0.0593 0.0988,-0.0593 0.0395,0 0.0444,0.0247 0.01,0.0247 0.01,0.0938 v 0.49883 q 0,0.0543 -0.005,0.0741 0,0.0198 -0.0148,0.0346 -0.0148,0.01 -0.0444,0.01 -0.0543,0 -0.0593,-0.0445 -0.0395,-0.59761 -0.57785,-0.59761 -0.2914,0 -0.42475,0.1136 -0.12841,0.10865 -0.12841,0.26176 0,0.084 0.0395,0.14817 0.0395,0.0642 0.0889,0.10371 0.0543,0.0346 0.14817,0.0692 0.0988,0.0346 0.15804,0.0494 0.0593,0.01 0.17287,0.0346 0.39511,0.0741 0.56303,0.23706 0.20743,0.20744 0.20743,0.4692 0,0.29139 -0.19755,0.48895 -0.19756,0.19756 -0.59761,0.19756 -0.32103,0 -0.54328,-0.21238 -0.0296,0.0296 -0.0543,0.0543 -0.0198,0.0247 -0.0296,0.0346 -0.005,0.01 -0.01,0.0148 0,0.005 -0.005,0.01 -0.0988,0.0988 -0.12348,0.0988 -0.0395,0 -0.0494,-0.0247 -0.005,-0.0247 -0.005,-0.0938 z"
       id="text10"
       style="font-size:4.93889px;line-height:1.25;font-family:'CMU Serif';-inkscape-font-specification:'CMU Serif';text-align:center;text-anchor:middle;stroke-width:0.264583"
       aria-label="15 seconds" />
  </g>
</svg>
