<?xml version="1.0" encoding="UTF-8" standalone="no"?>
<!DOCTYPE svg PUBLIC "-//W3C//DTD SVG 1.1//EN"
 "http://www.w3.org/Graphics/SVG/1.1/DTD/svg11.dtd">
<!-- Generated by graphviz version 2.43.0 (0)
 -->
<!-- Title: snakemake_dag Pages: 1 -->
<svg width="1992pt" height="188pt"
 viewBox="0.00 0.00 1991.50 188.00" xmlns="http://www.w3.org/2000/svg" xmlns:xlink="http://www.w3.org/1999/xlink">
<g id="graph0" class="graph" transform="scale(1 1) rotate(0) translate(4 184)">
<title>snakemake_dag</title>
<polygon fill="white" stroke="transparent" points="-4,4 -4,-184 1987.5,-184 1987.5,4 -4,4"/>
<!-- 0 -->
<g id="node1" class="node">
<title>0</title>
<path fill="none" stroke="#56d873" stroke-width="2" d="M980.5,-36C980.5,-36 943.5,-36 943.5,-36 937.5,-36 931.5,-30 931.5,-24 931.5,-24 931.5,-12 931.5,-12 931.5,-6 937.5,0 943.5,0 943.5,0 980.5,0 980.5,0 986.5,0 992.5,-6 992.5,-12 992.5,-12 992.5,-24 992.5,-24 992.5,-30 986.5,-36 980.5,-36"/>
<text text-anchor="middle" x="962" y="-15.5" font-family="sans" font-size="10.00">spectrum</text>
</g>
<!-- 1 -->
<g id="node2" class="node">
<title>1</title>
<path fill="none" stroke="#70d856" stroke-width="2" d="M46,-180C46,-180 12,-180 12,-180 6,-180 0,-174 0,-168 0,-168 0,-156 0,-156 0,-150 6,-144 12,-144 12,-144 46,-144 46,-144 52,-144 58,-150 58,-156 58,-156 58,-168 58,-168 58,-174 52,-180 46,-180"/>
<text text-anchor="middle" x="29" y="-165" font-family="sans" font-size="10.00">ps_mass</text>
<text text-anchor="middle" x="29" y="-154" font-family="sans" font-size="10.00">beta: 1.5</text>
</g>
<!-- 1&#45;&gt;0 -->
<g id="edge1" class="edge">
<title>1&#45;&gt;0</title>
<path fill="none" stroke="grey" stroke-width="2" d="M28.99,-143.71C30,-123.02 35.16,-89.03 57,-72 125.73,-18.41 753.03,-17.88 920.86,-18.71"/>
<polygon fill="grey" stroke="grey" stroke-width="2" points="921,-22.21 931.02,-18.76 921.04,-15.21 921,-22.21"/>
</g>
<!-- 12 -->
<g id="node13" class="node">
<title>12</title>
<path fill="none" stroke="#d8cb56" stroke-width="2" d="M161.5,-108C161.5,-108 78.5,-108 78.5,-108 72.5,-108 66.5,-102 66.5,-96 66.5,-96 66.5,-84 66.5,-84 66.5,-78 72.5,-72 78.5,-72 78.5,-72 161.5,-72 161.5,-72 167.5,-72 173.5,-78 173.5,-84 173.5,-84 173.5,-96 173.5,-96 173.5,-102 167.5,-108 161.5,-108"/>
<text text-anchor="middle" x="120" y="-93" font-family="sans" font-size="10.00">one_loop_matching</text>
<text text-anchor="middle" x="120" y="-82" font-family="sans" font-size="10.00">channel: ps</text>
</g>
<!-- 1&#45;&gt;12 -->
<g id="edge24" class="edge">
<title>1&#45;&gt;12</title>
<path fill="none" stroke="grey" stroke-width="2" d="M51.49,-143.7C62.96,-134.88 77.06,-124.03 89.48,-114.47"/>
<polygon fill="grey" stroke="grey" stroke-width="2" points="91.97,-116.98 97.76,-108.1 87.7,-111.43 91.97,-116.98"/>
</g>
<!-- 2 -->
<g id="node3" class="node">
<title>2</title>
<path fill="none" stroke="#70d856" stroke-width="2" d="M228,-180C228,-180 194,-180 194,-180 188,-180 182,-174 182,-168 182,-168 182,-156 182,-156 182,-150 188,-144 194,-144 194,-144 228,-144 228,-144 234,-144 240,-150 240,-156 240,-156 240,-168 240,-168 240,-174 234,-180 228,-180"/>
<text text-anchor="middle" x="211" y="-165" font-family="sans" font-size="10.00">ps_mass</text>
<text text-anchor="middle" x="211" y="-154" font-family="sans" font-size="10.00">beta: 1.6</text>
</g>
<!-- 2&#45;&gt;0 -->
<g id="edge2" class="edge">
<title>2&#45;&gt;0</title>
<path fill="none" stroke="grey" stroke-width="2" d="M211.23,-143.75C212.53,-123.09 218.12,-89.14 240,-72 293.75,-29.89 776.51,-21.08 921.2,-19.38"/>
<polygon fill="grey" stroke="grey" stroke-width="2" points="921.45,-22.88 931.41,-19.27 921.37,-15.88 921.45,-22.88"/>
</g>
<!-- 14 -->
<g id="node15" class="node">
<title>14</title>
<path fill="none" stroke="#d8cb56" stroke-width="2" d="M343.5,-108C343.5,-108 260.5,-108 260.5,-108 254.5,-108 248.5,-102 248.5,-96 248.5,-96 248.5,-84 248.5,-84 248.5,-78 254.5,-72 260.5,-72 260.5,-72 343.5,-72 343.5,-72 349.5,-72 355.5,-78 355.5,-84 355.5,-84 355.5,-96 355.5,-96 355.5,-102 349.5,-108 343.5,-108"/>
<text text-anchor="middle" x="302" y="-93" font-family="sans" font-size="10.00">one_loop_matching</text>
<text text-anchor="middle" x="302" y="-82" font-family="sans" font-size="10.00">channel: ps</text>
</g>
<!-- 2&#45;&gt;14 -->
<g id="edge26" class="edge">
<title>2&#45;&gt;14</title>
<path fill="none" stroke="grey" stroke-width="2" d="M233.49,-143.7C244.96,-134.88 259.06,-124.03 271.48,-114.47"/>
<polygon fill="grey" stroke="grey" stroke-width="2" points="273.97,-116.98 279.76,-108.1 269.7,-111.43 273.97,-116.98"/>
</g>
<!-- 3 -->
<g id="node4" class="node">
<title>3</title>
<path fill="none" stroke="#70d856" stroke-width="2" d="M410,-180C410,-180 376,-180 376,-180 370,-180 364,-174 364,-168 364,-168 364,-156 364,-156 364,-150 370,-144 376,-144 376,-144 410,-144 410,-144 416,-144 422,-150 422,-156 422,-156 422,-168 422,-168 422,-174 416,-180 410,-180"/>
<text text-anchor="middle" x="393" y="-165" font-family="sans" font-size="10.00">ps_mass</text>
<text text-anchor="middle" x="393" y="-154" font-family="sans" font-size="10.00">beta: 1.7</text>
</g>
<!-- 3&#45;&gt;0 -->
<g id="edge3" class="edge">
<title>3&#45;&gt;0</title>
<path fill="none" stroke="grey" stroke-width="2" d="M393.3,-143.84C394.67,-123.27 400.34,-89.4 422,-72 460.72,-40.89 802.09,-25.07 921.21,-20.46"/>
<polygon fill="grey" stroke="grey" stroke-width="2" points="921.51,-23.95 931.37,-20.07 921.24,-16.96 921.51,-23.95"/>
</g>
<!-- 16 -->
<g id="node17" class="node">
<title>16</title>
<path fill="none" stroke="#d8cb56" stroke-width="2" d="M525.5,-108C525.5,-108 442.5,-108 442.5,-108 436.5,-108 430.5,-102 430.5,-96 430.5,-96 430.5,-84 430.5,-84 430.5,-78 436.5,-72 442.5,-72 442.5,-72 525.5,-72 525.5,-72 531.5,-72 537.5,-78 537.5,-84 537.5,-84 537.5,-96 537.5,-96 537.5,-102 531.5,-108 525.5,-108"/>
<text text-anchor="middle" x="484" y="-93" font-family="sans" font-size="10.00">one_loop_matching</text>
<text text-anchor="middle" x="484" y="-82" font-family="sans" font-size="10.00">channel: ps</text>
</g>
<!-- 3&#45;&gt;16 -->
<g id="edge28" class="edge">
<title>3&#45;&gt;16</title>
<path fill="none" stroke="grey" stroke-width="2" d="M415.49,-143.7C426.96,-134.88 441.06,-124.03 453.48,-114.47"/>
<polygon fill="grey" stroke="grey" stroke-width="2" points="455.97,-116.98 461.76,-108.1 451.7,-111.43 455.97,-116.98"/>
</g>
<!-- 4 -->
<g id="node5" class="node">
<title>4</title>
<path fill="none" stroke="#70d856" stroke-width="2" d="M592,-180C592,-180 558,-180 558,-180 552,-180 546,-174 546,-168 546,-168 546,-156 546,-156 546,-150 552,-144 558,-144 558,-144 592,-144 592,-144 598,-144 604,-150 604,-156 604,-156 604,-168 604,-168 604,-174 598,-180 592,-180"/>
<text text-anchor="middle" x="575" y="-165" font-family="sans" font-size="10.00">ps_mass</text>
<text text-anchor="middle" x="575" y="-154" font-family="sans" font-size="10.00">beta: 1.8</text>
</g>
<!-- 4&#45;&gt;0 -->
<g id="edge4" class="edge">
<title>4&#45;&gt;0</title>
<path fill="none" stroke="grey" stroke-width="2" d="M575.47,-143.65C577.03,-123.22 582.89,-89.83 604,-72 651.3,-32.05 837.93,-22.2 921.34,-19.78"/>
<polygon fill="grey" stroke="grey" stroke-width="2" points="921.56,-23.28 931.46,-19.51 921.37,-16.28 921.56,-23.28"/>
</g>
<!-- 18 -->
<g id="node19" class="node">
<title>18</title>
<path fill="none" stroke="#d8cb56" stroke-width="2" d="M707.5,-108C707.5,-108 624.5,-108 624.5,-108 618.5,-108 612.5,-102 612.5,-96 612.5,-96 612.5,-84 612.5,-84 612.5,-78 618.5,-72 624.5,-72 624.5,-72 707.5,-72 707.5,-72 713.5,-72 719.5,-78 719.5,-84 719.5,-84 719.5,-96 719.5,-96 719.5,-102 713.5,-108 707.5,-108"/>
<text text-anchor="middle" x="666" y="-93" font-family="sans" font-size="10.00">one_loop_matching</text>
<text text-anchor="middle" x="666" y="-82" font-family="sans" font-size="10.00">channel: ps</text>
</g>
<!-- 4&#45;&gt;18 -->
<g id="edge30" class="edge">
<title>4&#45;&gt;18</title>
<path fill="none" stroke="grey" stroke-width="2" d="M597.49,-143.7C608.96,-134.88 623.06,-124.03 635.48,-114.47"/>
<polygon fill="grey" stroke="grey" stroke-width="2" points="637.97,-116.98 643.76,-108.1 633.7,-111.43 637.97,-116.98"/>
</g>
<!-- 5 -->
<g id="node6" class="node">
<title>5</title>
<path fill="none" stroke="#70d856" stroke-width="2" d="M774,-180C774,-180 740,-180 740,-180 734,-180 728,-174 728,-168 728,-168 728,-156 728,-156 728,-150 734,-144 740,-144 740,-144 774,-144 774,-144 780,-144 786,-150 786,-156 786,-156 786,-168 786,-168 786,-174 780,-180 774,-180"/>
<text text-anchor="middle" x="757" y="-165" font-family="sans" font-size="10.00">ps_mass</text>
<text text-anchor="middle" x="757" y="-154" font-family="sans" font-size="10.00">beta: 1.9</text>
</g>
<!-- 5&#45;&gt;0 -->
<g id="edge5" class="edge">
<title>5&#45;&gt;0</title>
<path fill="none" stroke="grey" stroke-width="2" d="M756,-143.89C755.8,-124.02 758.63,-91.47 777,-72 814.31,-32.46 878.93,-21.77 921.07,-19.23"/>
<polygon fill="grey" stroke="grey" stroke-width="2" points="921.44,-22.72 931.27,-18.75 921.11,-15.73 921.44,-22.72"/>
</g>
<!-- 20 -->
<g id="node21" class="node">
<title>20</title>
<path fill="none" stroke="#d8cb56" stroke-width="2" d="M880.5,-108C880.5,-108 797.5,-108 797.5,-108 791.5,-108 785.5,-102 785.5,-96 785.5,-96 785.5,-84 785.5,-84 785.5,-78 791.5,-72 797.5,-72 797.5,-72 880.5,-72 880.5,-72 886.5,-72 892.5,-78 892.5,-84 892.5,-84 892.5,-96 892.5,-96 892.5,-102 886.5,-108 880.5,-108"/>
<text text-anchor="middle" x="839" y="-93" font-family="sans" font-size="10.00">one_loop_matching</text>
<text text-anchor="middle" x="839" y="-82" font-family="sans" font-size="10.00">channel: ps</text>
</g>
<!-- 5&#45;&gt;20 -->
<g id="edge32" class="edge">
<title>5&#45;&gt;20</title>
<path fill="none" stroke="grey" stroke-width="2" d="M777.27,-143.7C787.5,-134.97 800.06,-124.24 811.18,-114.75"/>
<polygon fill="grey" stroke="grey" stroke-width="2" points="813.63,-117.26 818.96,-108.1 809.09,-111.94 813.63,-117.26"/>
</g>
<!-- 6 -->
<g id="node7" class="node">
<title>6</title>
<path fill="none" stroke="#70d856" stroke-width="2" d="M956,-180C956,-180 922,-180 922,-180 916,-180 910,-174 910,-168 910,-168 910,-156 910,-156 910,-150 916,-144 922,-144 922,-144 956,-144 956,-144 962,-144 968,-150 968,-156 968,-156 968,-168 968,-168 968,-174 962,-180 956,-180"/>
<text text-anchor="middle" x="939" y="-165" font-family="sans" font-size="10.00">ps_mass</text>
<text text-anchor="middle" x="939" y="-154" font-family="sans" font-size="10.00">beta: 2.0</text>
</g>
<!-- 6&#45;&gt;0 -->
<g id="edge6" class="edge">
<title>6&#45;&gt;0</title>
<path fill="none" stroke="grey" stroke-width="2" d="M937.6,-143.74C936.55,-125.66 936.03,-96.54 941,-72 942.81,-63.08 946.03,-53.72 949.41,-45.4"/>
<polygon fill="grey" stroke="grey" stroke-width="2" points="952.64,-46.76 953.39,-36.19 946.21,-43.98 952.64,-46.76"/>
</g>
<!-- 22 -->
<g id="node23" class="node">
<title>22</title>
<path fill="none" stroke="#d8cb56" stroke-width="2" d="M1044.5,-108C1044.5,-108 961.5,-108 961.5,-108 955.5,-108 949.5,-102 949.5,-96 949.5,-96 949.5,-84 949.5,-84 949.5,-78 955.5,-72 961.5,-72 961.5,-72 1044.5,-72 1044.5,-72 1050.5,-72 1056.5,-78 1056.5,-84 1056.5,-84 1056.5,-96 1056.5,-96 1056.5,-102 1050.5,-108 1044.5,-108"/>
<text text-anchor="middle" x="1003" y="-93" font-family="sans" font-size="10.00">one_loop_matching</text>
<text text-anchor="middle" x="1003" y="-82" font-family="sans" font-size="10.00">channel: ps</text>
</g>
<!-- 6&#45;&gt;22 -->
<g id="edge34" class="edge">
<title>6&#45;&gt;22</title>
<path fill="none" stroke="grey" stroke-width="2" d="M954.82,-143.7C962.57,-135.22 972.04,-124.86 980.52,-115.58"/>
<polygon fill="grey" stroke="grey" stroke-width="2" points="983.2,-117.85 987.36,-108.1 978.03,-113.12 983.2,-117.85"/>
</g>
<!-- 7 -->
<g id="node8" class="node">
<title>7</title>
<path fill="none" stroke="#70d856" stroke-width="2" d="M1138,-180C1138,-180 1104,-180 1104,-180 1098,-180 1092,-174 1092,-168 1092,-168 1092,-156 1092,-156 1092,-150 1098,-144 1104,-144 1104,-144 1138,-144 1138,-144 1144,-144 1150,-150 1150,-156 1150,-156 1150,-168 1150,-168 1150,-174 1144,-180 1138,-180"/>
<text text-anchor="middle" x="1121" y="-165" font-family="sans" font-size="10.00">ps_mass</text>
<text text-anchor="middle" x="1121" y="-154" font-family="sans" font-size="10.00">beta: 2.1</text>
</g>
<!-- 7&#45;&gt;0 -->
<g id="edge7" class="edge">
<title>7&#45;&gt;0</title>
<path fill="none" stroke="grey" stroke-width="2" d="M1113.77,-143.66C1104.92,-124.16 1088.31,-92.55 1066,-72 1047.73,-55.17 1023.11,-42.31 1002.41,-33.47"/>
<polygon fill="grey" stroke="grey" stroke-width="2" points="1003.49,-30.13 992.91,-29.57 1000.83,-36.61 1003.49,-30.13"/>
</g>
<!-- 24 -->
<g id="node25" class="node">
<title>24</title>
<path fill="none" stroke="#d8cb56" stroke-width="2" d="M1208.5,-108C1208.5,-108 1125.5,-108 1125.5,-108 1119.5,-108 1113.5,-102 1113.5,-96 1113.5,-96 1113.5,-84 1113.5,-84 1113.5,-78 1119.5,-72 1125.5,-72 1125.5,-72 1208.5,-72 1208.5,-72 1214.5,-72 1220.5,-78 1220.5,-84 1220.5,-84 1220.5,-96 1220.5,-96 1220.5,-102 1214.5,-108 1208.5,-108"/>
<text text-anchor="middle" x="1167" y="-93" font-family="sans" font-size="10.00">one_loop_matching</text>
<text text-anchor="middle" x="1167" y="-82" font-family="sans" font-size="10.00">channel: ps</text>
</g>
<!-- 7&#45;&gt;24 -->
<g id="edge36" class="edge">
<title>7&#45;&gt;24</title>
<path fill="none" stroke="grey" stroke-width="2" d="M1132.37,-143.7C1137.72,-135.56 1144.2,-125.69 1150.11,-116.7"/>
<polygon fill="grey" stroke="grey" stroke-width="2" points="1153.19,-118.38 1155.76,-108.1 1147.34,-114.54 1153.19,-118.38"/>
</g>
<!-- 8 -->
<g id="node9" class="node">
<title>8</title>
<path fill="none" stroke="#70d856" stroke-width="2" d="M1320,-180C1320,-180 1286,-180 1286,-180 1280,-180 1274,-174 1274,-168 1274,-168 1274,-156 1274,-156 1274,-150 1280,-144 1286,-144 1286,-144 1320,-144 1320,-144 1326,-144 1332,-150 1332,-156 1332,-156 1332,-168 1332,-168 1332,-174 1326,-180 1320,-180"/>
<text text-anchor="middle" x="1303" y="-165" font-family="sans" font-size="10.00">ps_mass</text>
<text text-anchor="middle" x="1303" y="-154" font-family="sans" font-size="10.00">beta: 2.2</text>
</g>
<!-- 8&#45;&gt;0 -->
<g id="edge8" class="edge">
<title>8&#45;&gt;0</title>
<path fill="none" stroke="grey" stroke-width="2" d="M1291.05,-143.79C1274.59,-120.6 1245.26,-81.14 1230,-72 1158.32,-29.08 1058.4,-20.13 1003.04,-18.73"/>
<polygon fill="grey" stroke="grey" stroke-width="2" points="1002.97,-15.22 992.91,-18.54 1002.84,-22.22 1002.97,-15.22"/>
</g>
<!-- 26 -->
<g id="node27" class="node">
<title>26</title>
<path fill="none" stroke="#d8cb56" stroke-width="2" d="M1372.5,-108C1372.5,-108 1289.5,-108 1289.5,-108 1283.5,-108 1277.5,-102 1277.5,-96 1277.5,-96 1277.5,-84 1277.5,-84 1277.5,-78 1283.5,-72 1289.5,-72 1289.5,-72 1372.5,-72 1372.5,-72 1378.5,-72 1384.5,-78 1384.5,-84 1384.5,-84 1384.5,-96 1384.5,-96 1384.5,-102 1378.5,-108 1372.5,-108"/>
<text text-anchor="middle" x="1331" y="-93" font-family="sans" font-size="10.00">one_loop_matching</text>
<text text-anchor="middle" x="1331" y="-82" font-family="sans" font-size="10.00">channel: ps</text>
</g>
<!-- 8&#45;&gt;26 -->
<g id="edge38" class="edge">
<title>8&#45;&gt;26</title>
<path fill="none" stroke="grey" stroke-width="2" d="M1309.92,-143.7C1313.07,-135.81 1316.88,-126.3 1320.38,-117.55"/>
<polygon fill="grey" stroke="grey" stroke-width="2" points="1323.69,-118.69 1324.16,-108.1 1317.19,-116.09 1323.69,-118.69"/>
</g>
<!-- 9 -->
<g id="node10" class="node">
<title>9</title>
<path fill="none" stroke="#70d856" stroke-width="2" d="M1502,-180C1502,-180 1468,-180 1468,-180 1462,-180 1456,-174 1456,-168 1456,-168 1456,-156 1456,-156 1456,-150 1462,-144 1468,-144 1468,-144 1502,-144 1502,-144 1508,-144 1514,-150 1514,-156 1514,-156 1514,-168 1514,-168 1514,-174 1508,-180 1502,-180"/>
<text text-anchor="middle" x="1485" y="-165" font-family="sans" font-size="10.00">ps_mass</text>
<text text-anchor="middle" x="1485" y="-154" font-family="sans" font-size="10.00">beta: 2.3</text>
</g>
<!-- 9&#45;&gt;0 -->
<g id="edge9" class="edge">
<title>9&#45;&gt;0</title>
<path fill="none" stroke="grey" stroke-width="2" d="M1468.13,-143.95C1443.1,-118.73 1398.56,-74.19 1394,-72 1325.31,-38.97 1096.63,-25.09 1002.76,-20.68"/>
<polygon fill="grey" stroke="grey" stroke-width="2" points="1002.67,-17.18 992.52,-20.22 1002.35,-24.17 1002.67,-17.18"/>
</g>
<!-- 28 -->
<g id="node29" class="node">
<title>28</title>
<path fill="none" stroke="#d8cb56" stroke-width="2" d="M1536.5,-108C1536.5,-108 1453.5,-108 1453.5,-108 1447.5,-108 1441.5,-102 1441.5,-96 1441.5,-96 1441.5,-84 1441.5,-84 1441.5,-78 1447.5,-72 1453.5,-72 1453.5,-72 1536.5,-72 1536.5,-72 1542.5,-72 1548.5,-78 1548.5,-84 1548.5,-84 1548.5,-96 1548.5,-96 1548.5,-102 1542.5,-108 1536.5,-108"/>
<text text-anchor="middle" x="1495" y="-93" font-family="sans" font-size="10.00">one_loop_matching</text>
<text text-anchor="middle" x="1495" y="-82" font-family="sans" font-size="10.00">channel: ps</text>
</g>
<!-- 9&#45;&gt;28 -->
<g id="edge40" class="edge">
<title>9&#45;&gt;28</title>
<path fill="none" stroke="grey" stroke-width="2" d="M1487.47,-143.7C1488.57,-135.98 1489.9,-126.71 1491.13,-118.11"/>
<polygon fill="grey" stroke="grey" stroke-width="2" points="1494.61,-118.5 1492.56,-108.1 1487.68,-117.51 1494.61,-118.5"/>
</g>
<!-- 10 -->
<g id="node11" class="node">
<title>10</title>
<path fill="none" stroke="#70d856" stroke-width="2" d="M1684,-180C1684,-180 1650,-180 1650,-180 1644,-180 1638,-174 1638,-168 1638,-168 1638,-156 1638,-156 1638,-150 1644,-144 1650,-144 1650,-144 1684,-144 1684,-144 1690,-144 1696,-150 1696,-156 1696,-156 1696,-168 1696,-168 1696,-174 1690,-180 1684,-180"/>
<text text-anchor="middle" x="1667" y="-165" font-family="sans" font-size="10.00">ps_mass</text>
<text text-anchor="middle" x="1667" y="-154" font-family="sans" font-size="10.00">beta: 2.4</text>
</g>
<!-- 10&#45;&gt;0 -->
<g id="edge10" class="edge">
<title>10&#45;&gt;0</title>
<path fill="none" stroke="grey" stroke-width="2" d="M1646.73,-143.93C1616.65,-118.68 1563.18,-74.11 1558,-72 1456.9,-30.83 1120.14,-21.54 1002.77,-19.53"/>
<polygon fill="grey" stroke="grey" stroke-width="2" points="1002.81,-16.03 992.75,-19.37 1002.69,-23.03 1002.81,-16.03"/>
</g>
<!-- 30 -->
<g id="node31" class="node">
<title>30</title>
<path fill="none" stroke="#d8cb56" stroke-width="2" d="M1708.5,-108C1708.5,-108 1625.5,-108 1625.5,-108 1619.5,-108 1613.5,-102 1613.5,-96 1613.5,-96 1613.5,-84 1613.5,-84 1613.5,-78 1619.5,-72 1625.5,-72 1625.5,-72 1708.5,-72 1708.5,-72 1714.5,-72 1720.5,-78 1720.5,-84 1720.5,-84 1720.5,-96 1720.5,-96 1720.5,-102 1714.5,-108 1708.5,-108"/>
<text text-anchor="middle" x="1667" y="-93" font-family="sans" font-size="10.00">one_loop_matching</text>
<text text-anchor="middle" x="1667" y="-82" font-family="sans" font-size="10.00">channel: ps</text>
</g>
<!-- 10&#45;&gt;30 -->
<g id="edge42" class="edge">
<title>10&#45;&gt;30</title>
<path fill="none" stroke="grey" stroke-width="2" d="M1667,-143.7C1667,-135.98 1667,-126.71 1667,-118.11"/>
<polygon fill="grey" stroke="grey" stroke-width="2" points="1670.5,-118.1 1667,-108.1 1663.5,-118.1 1670.5,-118.1"/>
</g>
<!-- 11 -->
<g id="node12" class="node">
<title>11</title>
<path fill="none" stroke="#70d856" stroke-width="2" d="M1866,-180C1866,-180 1832,-180 1832,-180 1826,-180 1820,-174 1820,-168 1820,-168 1820,-156 1820,-156 1820,-150 1826,-144 1832,-144 1832,-144 1866,-144 1866,-144 1872,-144 1878,-150 1878,-156 1878,-156 1878,-168 1878,-168 1878,-174 1872,-180 1866,-180"/>
<text text-anchor="middle" x="1849" y="-165" font-family="sans" font-size="10.00">ps_mass</text>
<text text-anchor="middle" x="1849" y="-154" font-family="sans" font-size="10.00">beta: 2.5</text>
</g>
<!-- 11&#45;&gt;0 -->
<g id="edge11" class="edge">
<title>11&#45;&gt;0</title>
<path fill="none" stroke="grey" stroke-width="2" d="M1829.05,-143.87C1801.2,-120.35 1751.65,-80.04 1730,-72 1594.76,-21.79 1141.48,-18.57 1002.72,-18.8"/>
<polygon fill="grey" stroke="grey" stroke-width="2" points="1002.52,-15.3 992.52,-18.82 1002.53,-22.3 1002.52,-15.3"/>
</g>
<!-- 32 -->
<g id="node33" class="node">
<title>32</title>
<path fill="none" stroke="#d8cb56" stroke-width="2" d="M1890.5,-108C1890.5,-108 1807.5,-108 1807.5,-108 1801.5,-108 1795.5,-102 1795.5,-96 1795.5,-96 1795.5,-84 1795.5,-84 1795.5,-78 1801.5,-72 1807.5,-72 1807.5,-72 1890.5,-72 1890.5,-72 1896.5,-72 1902.5,-78 1902.5,-84 1902.5,-84 1902.5,-96 1902.5,-96 1902.5,-102 1896.5,-108 1890.5,-108"/>
<text text-anchor="middle" x="1849" y="-93" font-family="sans" font-size="10.00">one_loop_matching</text>
<text text-anchor="middle" x="1849" y="-82" font-family="sans" font-size="10.00">channel: ps</text>
</g>
<!-- 11&#45;&gt;32 -->
<g id="edge44" class="edge">
<title>11&#45;&gt;32</title>
<path fill="none" stroke="grey" stroke-width="2" d="M1849,-143.7C1849,-135.98 1849,-126.71 1849,-118.11"/>
<polygon fill="grey" stroke="grey" stroke-width="2" points="1852.5,-118.1 1849,-108.1 1845.5,-118.1 1852.5,-118.1"/>
</g>
<!-- 12&#45;&gt;0 -->
<g id="edge12" class="edge">
<title>12&#45;&gt;0</title>
<path fill="none" stroke="grey" stroke-width="2" d="M173.85,-76.62C182.88,-74.86 192.18,-73.23 201,-72 474.49,-33.96 807.26,-22.73 921.36,-19.87"/>
<polygon fill="grey" stroke="grey" stroke-width="2" points="921.48,-23.37 931.4,-19.62 921.31,-16.37 921.48,-23.37"/>
</g>
<!-- 13 -->
<g id="node14" class="node">
<title>13</title>
<path fill="none" stroke="#d85656" stroke-width="2" d="M151.5,-180C151.5,-180 88.5,-180 88.5,-180 82.5,-180 76.5,-174 76.5,-168 76.5,-168 76.5,-156 76.5,-156 76.5,-150 82.5,-144 88.5,-144 88.5,-144 151.5,-144 151.5,-144 157.5,-144 163.5,-150 163.5,-156 163.5,-156 163.5,-168 163.5,-168 163.5,-174 157.5,-180 151.5,-180"/>
<text text-anchor="middle" x="120" y="-165" font-family="sans" font-size="10.00">avg_plaquette</text>
<text text-anchor="middle" x="120" y="-154" font-family="sans" font-size="10.00">subdir: beta1.5</text>
</g>
<!-- 13&#45;&gt;12 -->
<g id="edge23" class="edge">
<title>13&#45;&gt;12</title>
<path fill="none" stroke="grey" stroke-width="2" d="M120,-143.7C120,-135.98 120,-126.71 120,-118.11"/>
<polygon fill="grey" stroke="grey" stroke-width="2" points="123.5,-118.1 120,-108.1 116.5,-118.1 123.5,-118.1"/>
</g>
<!-- 14&#45;&gt;0 -->
<g id="edge13" class="edge">
<title>14&#45;&gt;0</title>
<path fill="none" stroke="grey" stroke-width="2" d="M355.87,-76.79C364.9,-75 374.19,-73.32 383,-72 583.85,-41.83 826.65,-26.35 921.38,-21.1"/>
<polygon fill="grey" stroke="grey" stroke-width="2" points="921.61,-24.59 931.4,-20.55 921.23,-17.6 921.61,-24.59"/>
</g>
<!-- 15 -->
<g id="node16" class="node">
<title>15</title>
<path fill="none" stroke="#d85656" stroke-width="2" d="M333.5,-180C333.5,-180 270.5,-180 270.5,-180 264.5,-180 258.5,-174 258.5,-168 258.5,-168 258.5,-156 258.5,-156 258.5,-150 264.5,-144 270.5,-144 270.5,-144 333.5,-144 333.5,-144 339.5,-144 345.5,-150 345.5,-156 345.5,-156 345.5,-168 345.5,-168 345.5,-174 339.5,-180 333.5,-180"/>
<text text-anchor="middle" x="302" y="-165" font-family="sans" font-size="10.00">avg_plaquette</text>
<text text-anchor="middle" x="302" y="-154" font-family="sans" font-size="10.00">subdir: beta1.6</text>
</g>
<!-- 15&#45;&gt;14 -->
<g id="edge25" class="edge">
<title>15&#45;&gt;14</title>
<path fill="none" stroke="grey" stroke-width="2" d="M302,-143.7C302,-135.98 302,-126.71 302,-118.11"/>
<polygon fill="grey" stroke="grey" stroke-width="2" points="305.5,-118.1 302,-108.1 298.5,-118.1 305.5,-118.1"/>
</g>
<!-- 16&#45;&gt;0 -->
<g id="edge14" class="edge">
<title>16&#45;&gt;0</title>
<path fill="none" stroke="grey" stroke-width="2" d="M537.92,-77.1C546.94,-75.28 556.22,-73.51 565,-72 694.5,-49.8 849.12,-31.5 921.22,-23.43"/>
<polygon fill="grey" stroke="grey" stroke-width="2" points="921.7,-26.9 931.25,-22.32 920.92,-19.94 921.7,-26.9"/>
</g>
<!-- 17 -->
<g id="node18" class="node">
<title>17</title>
<path fill="none" stroke="#d85656" stroke-width="2" d="M515.5,-180C515.5,-180 452.5,-180 452.5,-180 446.5,-180 440.5,-174 440.5,-168 440.5,-168 440.5,-156 440.5,-156 440.5,-150 446.5,-144 452.5,-144 452.5,-144 515.5,-144 515.5,-144 521.5,-144 527.5,-150 527.5,-156 527.5,-156 527.5,-168 527.5,-168 527.5,-174 521.5,-180 515.5,-180"/>
<text text-anchor="middle" x="484" y="-165" font-family="sans" font-size="10.00">avg_plaquette</text>
<text text-anchor="middle" x="484" y="-154" font-family="sans" font-size="10.00">subdir: beta1.7</text>
</g>
<!-- 17&#45;&gt;16 -->
<g id="edge27" class="edge">
<title>17&#45;&gt;16</title>
<path fill="none" stroke="grey" stroke-width="2" d="M484,-143.7C484,-135.98 484,-126.71 484,-118.11"/>
<polygon fill="grey" stroke="grey" stroke-width="2" points="487.5,-118.1 484,-108.1 480.5,-118.1 487.5,-118.1"/>
</g>
<!-- 18&#45;&gt;0 -->
<g id="edge15" class="edge">
<title>18&#45;&gt;0</title>
<path fill="none" stroke="grey" stroke-width="2" d="M719.6,-76.32C777.71,-62.58 869.12,-40.97 921.51,-28.58"/>
<polygon fill="grey" stroke="grey" stroke-width="2" points="922.52,-31.93 931.44,-26.23 920.9,-25.12 922.52,-31.93"/>
</g>
<!-- 19 -->
<g id="node20" class="node">
<title>19</title>
<path fill="none" stroke="#d85656" stroke-width="2" d="M697.5,-180C697.5,-180 634.5,-180 634.5,-180 628.5,-180 622.5,-174 622.5,-168 622.5,-168 622.5,-156 622.5,-156 622.5,-150 628.5,-144 634.5,-144 634.5,-144 697.5,-144 697.5,-144 703.5,-144 709.5,-150 709.5,-156 709.5,-156 709.5,-168 709.5,-168 709.5,-174 703.5,-180 697.5,-180"/>
<text text-anchor="middle" x="666" y="-165" font-family="sans" font-size="10.00">avg_plaquette</text>
<text text-anchor="middle" x="666" y="-154" font-family="sans" font-size="10.00">subdir: beta1.8</text>
</g>
<!-- 19&#45;&gt;18 -->
<g id="edge29" class="edge">
<title>19&#45;&gt;18</title>
<path fill="none" stroke="grey" stroke-width="2" d="M666,-143.7C666,-135.98 666,-126.71 666,-118.11"/>
<polygon fill="grey" stroke="grey" stroke-width="2" points="669.5,-118.1 666,-108.1 662.5,-118.1 669.5,-118.1"/>
</g>
<!-- 20&#45;&gt;0 -->
<g id="edge16" class="edge">
<title>20&#45;&gt;0</title>
<path fill="none" stroke="grey" stroke-width="2" d="M869.09,-71.88C885.32,-62.64 905.54,-51.13 922.97,-41.21"/>
<polygon fill="grey" stroke="grey" stroke-width="2" points="924.84,-44.18 931.8,-36.19 921.37,-38.09 924.84,-44.18"/>
</g>
<!-- 21 -->
<g id="node22" class="node">
<title>21</title>
<path fill="none" stroke="#d85656" stroke-width="2" d="M879.5,-180C879.5,-180 816.5,-180 816.5,-180 810.5,-180 804.5,-174 804.5,-168 804.5,-168 804.5,-156 804.5,-156 804.5,-150 810.5,-144 816.5,-144 816.5,-144 879.5,-144 879.5,-144 885.5,-144 891.5,-150 891.5,-156 891.5,-156 891.5,-168 891.5,-168 891.5,-174 885.5,-180 879.5,-180"/>
<text text-anchor="middle" x="848" y="-165" font-family="sans" font-size="10.00">avg_plaquette</text>
<text text-anchor="middle" x="848" y="-154" font-family="sans" font-size="10.00">subdir: beta1.9</text>
</g>
<!-- 21&#45;&gt;20 -->
<g id="edge31" class="edge">
<title>21&#45;&gt;20</title>
<path fill="none" stroke="grey" stroke-width="2" d="M845.78,-143.7C844.78,-135.98 843.59,-126.71 842.49,-118.11"/>
<polygon fill="grey" stroke="grey" stroke-width="2" points="845.95,-117.58 841.2,-108.1 839,-118.47 845.95,-117.58"/>
</g>
<!-- 22&#45;&gt;0 -->
<g id="edge17" class="edge">
<title>22&#45;&gt;0</title>
<path fill="none" stroke="grey" stroke-width="2" d="M992.87,-71.7C988.15,-63.64 982.44,-53.89 977.22,-44.98"/>
<polygon fill="grey" stroke="grey" stroke-width="2" points="980.09,-42.96 972.02,-36.1 974.05,-46.5 980.09,-42.96"/>
</g>
<!-- 23 -->
<g id="node24" class="node">
<title>23</title>
<path fill="none" stroke="#d85656" stroke-width="2" d="M1061.5,-180C1061.5,-180 998.5,-180 998.5,-180 992.5,-180 986.5,-174 986.5,-168 986.5,-168 986.5,-156 986.5,-156 986.5,-150 992.5,-144 998.5,-144 998.5,-144 1061.5,-144 1061.5,-144 1067.5,-144 1073.5,-150 1073.5,-156 1073.5,-156 1073.5,-168 1073.5,-168 1073.5,-174 1067.5,-180 1061.5,-180"/>
<text text-anchor="middle" x="1030" y="-165" font-family="sans" font-size="10.00">avg_plaquette</text>
<text text-anchor="middle" x="1030" y="-154" font-family="sans" font-size="10.00">subdir: beta2.0</text>
</g>
<!-- 23&#45;&gt;22 -->
<g id="edge33" class="edge">
<title>23&#45;&gt;22</title>
<path fill="none" stroke="grey" stroke-width="2" d="M1023.33,-143.7C1020.29,-135.81 1016.62,-126.3 1013.24,-117.55"/>
<polygon fill="grey" stroke="grey" stroke-width="2" points="1016.46,-116.17 1009.6,-108.1 1009.93,-118.69 1016.46,-116.17"/>
</g>
<!-- 24&#45;&gt;0 -->
<g id="edge18" class="edge">
<title>24&#45;&gt;0</title>
<path fill="none" stroke="grey" stroke-width="2" d="M1117.11,-71.97C1081.88,-59.94 1035.28,-44.02 1002.38,-32.79"/>
<polygon fill="grey" stroke="grey" stroke-width="2" points="1003.23,-29.38 992.64,-29.46 1000.97,-36.01 1003.23,-29.38"/>
</g>
<!-- 25 -->
<g id="node26" class="node">
<title>25</title>
<path fill="none" stroke="#d85656" stroke-width="2" d="M1243.5,-180C1243.5,-180 1180.5,-180 1180.5,-180 1174.5,-180 1168.5,-174 1168.5,-168 1168.5,-168 1168.5,-156 1168.5,-156 1168.5,-150 1174.5,-144 1180.5,-144 1180.5,-144 1243.5,-144 1243.5,-144 1249.5,-144 1255.5,-150 1255.5,-156 1255.5,-156 1255.5,-168 1255.5,-168 1255.5,-174 1249.5,-180 1243.5,-180"/>
<text text-anchor="middle" x="1212" y="-165" font-family="sans" font-size="10.00">avg_plaquette</text>
<text text-anchor="middle" x="1212" y="-154" font-family="sans" font-size="10.00">subdir: beta2.1</text>
</g>
<!-- 25&#45;&gt;24 -->
<g id="edge35" class="edge">
<title>25&#45;&gt;24</title>
<path fill="none" stroke="grey" stroke-width="2" d="M1200.88,-143.7C1195.64,-135.56 1189.3,-125.69 1183.52,-116.7"/>
<polygon fill="grey" stroke="grey" stroke-width="2" points="1186.35,-114.62 1178,-108.1 1180.46,-118.41 1186.35,-114.62"/>
</g>
<!-- 26&#45;&gt;0 -->
<g id="edge19" class="edge">
<title>26&#45;&gt;0</title>
<path fill="none" stroke="grey" stroke-width="2" d="M1277.26,-75.19C1272.45,-74.07 1267.64,-72.99 1263,-72 1170.47,-52.31 1060.82,-34.34 1002.78,-25.24"/>
<polygon fill="grey" stroke="grey" stroke-width="2" points="1003.32,-21.79 992.9,-23.7 1002.25,-28.7 1003.32,-21.79"/>
</g>
<!-- 27 -->
<g id="node28" class="node">
<title>27</title>
<path fill="none" stroke="#d85656" stroke-width="2" d="M1425.5,-180C1425.5,-180 1362.5,-180 1362.5,-180 1356.5,-180 1350.5,-174 1350.5,-168 1350.5,-168 1350.5,-156 1350.5,-156 1350.5,-150 1356.5,-144 1362.5,-144 1362.5,-144 1425.5,-144 1425.5,-144 1431.5,-144 1437.5,-150 1437.5,-156 1437.5,-156 1437.5,-168 1437.5,-168 1437.5,-174 1431.5,-180 1425.5,-180"/>
<text text-anchor="middle" x="1394" y="-165" font-family="sans" font-size="10.00">avg_plaquette</text>
<text text-anchor="middle" x="1394" y="-154" font-family="sans" font-size="10.00">subdir: beta2.2</text>
</g>
<!-- 27&#45;&gt;26 -->
<g id="edge37" class="edge">
<title>27&#45;&gt;26</title>
<path fill="none" stroke="grey" stroke-width="2" d="M1378.43,-143.7C1370.8,-135.22 1361.48,-124.86 1353.12,-115.58"/>
<polygon fill="grey" stroke="grey" stroke-width="2" points="1355.69,-113.2 1346.39,-108.1 1350.48,-117.88 1355.69,-113.2"/>
</g>
<!-- 28&#45;&gt;0 -->
<g id="edge20" class="edge">
<title>28&#45;&gt;0</title>
<path fill="none" stroke="grey" stroke-width="2" d="M1441.32,-74.89C1436.5,-73.83 1431.67,-72.85 1427,-72 1271.67,-43.86 1084.3,-27.91 1002.97,-21.85"/>
<polygon fill="grey" stroke="grey" stroke-width="2" points="1002.9,-18.33 992.67,-21.09 1002.39,-25.32 1002.9,-18.33"/>
</g>
<!-- 29 -->
<g id="node30" class="node">
<title>29</title>
<path fill="none" stroke="#d85656" stroke-width="2" d="M1607.5,-180C1607.5,-180 1544.5,-180 1544.5,-180 1538.5,-180 1532.5,-174 1532.5,-168 1532.5,-168 1532.5,-156 1532.5,-156 1532.5,-150 1538.5,-144 1544.5,-144 1544.5,-144 1607.5,-144 1607.5,-144 1613.5,-144 1619.5,-150 1619.5,-156 1619.5,-156 1619.5,-168 1619.5,-168 1619.5,-174 1613.5,-180 1607.5,-180"/>
<text text-anchor="middle" x="1576" y="-165" font-family="sans" font-size="10.00">avg_plaquette</text>
<text text-anchor="middle" x="1576" y="-154" font-family="sans" font-size="10.00">subdir: beta2.3</text>
</g>
<!-- 29&#45;&gt;28 -->
<g id="edge39" class="edge">
<title>29&#45;&gt;28</title>
<path fill="none" stroke="grey" stroke-width="2" d="M1555.98,-143.7C1545.87,-134.97 1533.46,-124.24 1522.48,-114.75"/>
<polygon fill="grey" stroke="grey" stroke-width="2" points="1524.65,-111.99 1514.79,-108.1 1520.07,-117.29 1524.65,-111.99"/>
</g>
<!-- 30&#45;&gt;0 -->
<g id="edge21" class="edge">
<title>30&#45;&gt;0</title>
<path fill="none" stroke="grey" stroke-width="2" d="M1613.31,-75.4C1607.16,-74.12 1600.96,-72.95 1595,-72 1373.31,-36.75 1103.98,-24.05 1002.91,-20.32"/>
<polygon fill="grey" stroke="grey" stroke-width="2" points="1002.94,-16.82 992.83,-19.96 1002.69,-23.82 1002.94,-16.82"/>
</g>
<!-- 31 -->
<g id="node32" class="node">
<title>31</title>
<path fill="none" stroke="#d85656" stroke-width="2" d="M1789.5,-180C1789.5,-180 1726.5,-180 1726.5,-180 1720.5,-180 1714.5,-174 1714.5,-168 1714.5,-168 1714.5,-156 1714.5,-156 1714.5,-150 1720.5,-144 1726.5,-144 1726.5,-144 1789.5,-144 1789.5,-144 1795.5,-144 1801.5,-150 1801.5,-156 1801.5,-156 1801.5,-168 1801.5,-168 1801.5,-174 1795.5,-180 1789.5,-180"/>
<text text-anchor="middle" x="1758" y="-165" font-family="sans" font-size="10.00">avg_plaquette</text>
<text text-anchor="middle" x="1758" y="-154" font-family="sans" font-size="10.00">subdir: beta2.4</text>
</g>
<!-- 31&#45;&gt;30 -->
<g id="edge41" class="edge">
<title>31&#45;&gt;30</title>
<path fill="none" stroke="grey" stroke-width="2" d="M1735.51,-143.7C1724.04,-134.88 1709.94,-124.03 1697.52,-114.47"/>
<polygon fill="grey" stroke="grey" stroke-width="2" points="1699.3,-111.43 1689.24,-108.1 1695.03,-116.98 1699.3,-111.43"/>
</g>
<!-- 32&#45;&gt;0 -->
<g id="edge22" class="edge">
<title>32&#45;&gt;0</title>
<path fill="none" stroke="grey" stroke-width="2" d="M1795.34,-76.06C1787.54,-74.5 1779.59,-73.08 1772,-72 1479.13,-30.33 1121.94,-21.36 1002.83,-19.48"/>
<polygon fill="grey" stroke="grey" stroke-width="2" points="1002.75,-15.98 992.7,-19.33 1002.65,-22.98 1002.75,-15.98"/>
</g>
<!-- 33 -->
<g id="node34" class="node">
<title>33</title>
<path fill="none" stroke="#d85656" stroke-width="2" d="M1971.5,-180C1971.5,-180 1908.5,-180 1908.5,-180 1902.5,-180 1896.5,-174 1896.5,-168 1896.5,-168 1896.5,-156 1896.5,-156 1896.5,-150 1902.5,-144 1908.5,-144 1908.5,-144 1971.5,-144 1971.5,-144 1977.5,-144 1983.5,-150 1983.5,-156 1983.5,-156 1983.5,-168 1983.5,-168 1983.5,-174 1977.5,-180 1971.5,-180"/>
<text text-anchor="middle" x="1940" y="-165" font-family="sans" font-size="10.00">avg_plaquette</text>
<text text-anchor="middle" x="1940" y="-154" font-family="sans" font-size="10.00">subdir: beta2.5</text>
</g>
<!-- 33&#45;&gt;32 -->
<g id="edge43" class="edge">
<title>33&#45;&gt;32</title>
<path fill="none" stroke="grey" stroke-width="2" d="M1917.51,-143.7C1906.04,-134.88 1891.94,-124.03 1879.52,-114.47"/>
<polygon fill="grey" stroke="grey" stroke-width="2" points="1881.3,-111.43 1871.24,-108.1 1877.03,-116.98 1881.3,-111.43"/>
</g>
</g>
</svg>
