<?xml version="1.0" encoding="UTF-8" standalone="no"?>
<!-- Generated by graphviz version 2.43.0 (0)
 -->

<!-- Title: snakemake_dag Pages: 1 -->

<svg
   width="273.11359pt"
   height="172.33598pt"
   viewBox="0 0 272.31965 172.33598"
   version="1.1"
   id="svg7"
   sodipodi:docname="dag.svg"
   inkscape:version="1.3 (0e150ed, 2023-07-21)"
   xmlns:inkscape="http://www.inkscape.org/namespaces/inkscape"
   xmlns:sodipodi="http://sodipodi.sourceforge.net/DTD/sodipodi-0.dtd"
   xmlns="http://www.w3.org/2000/svg"
   xmlns:svg="http://www.w3.org/2000/svg">
  <defs
     id="defs7">
    <marker
       style="overflow:visible"
       id="Triangle"
       refX="0"
       refY="0"
       orient="auto-start-reverse"
       inkscape:stockid="Triangle arrow"
       markerWidth="1"
       markerHeight="1"
       viewBox="0 0 1 1"
       inkscape:isstock="true"
       inkscape:collect="always"
       preserveAspectRatio="xMidYMid">
      <path
         transform="scale(0.5)"
         style="fill:context-stroke;fill-rule:evenodd;stroke:context-stroke;stroke-width:1pt"
         d="M 5.77,0 -2.88,5 V -5 Z"
         id="path135" />
    </marker>
  </defs>
  <sodipodi:namedview
     id="namedview7"
     pagecolor="#ffffff"
     bordercolor="#666666"
     borderopacity="1.0"
     inkscape:showpageshadow="2"
     inkscape:pageopacity="0.0"
     inkscape:pagecheckerboard="0"
     inkscape:deskcolor="#d1d1d1"
     inkscape:document-units="pt"
     inkscape:zoom="2.3047329"
     inkscape:cx="205.01291"
     inkscape:cy="81.137384"
     inkscape:window-width="2560"
     inkscape:window-height="1323"
     inkscape:window-x="0"
     inkscape:window-y="25"
     inkscape:window-maximized="1"
     inkscape:current-layer="svg7" />
  <path
     style="fill:none;stroke:#000000;stroke-width:1.5;stroke-linecap:butt;stroke-linejoin:miter;stroke-dasharray:none;stroke-opacity:1;marker-end:url(#Triangle)"
     d="m 136.10254,141.5727 v 12.95802"
     id="path11"
     sodipodi:nodetypes="cc" />
  <g
     id="node1"
     class="node"
     transform="translate(47.602544,141.5959)">
    <title
       id="title2">0</title>
    <path
       fill="none"
       stroke="#d8cb56"
       stroke-width="2"
       d="m 130,-36 c 0,0 -83,0 -83,0 -6,0 -12,6 -12,12 0,0 0,12 0,12 0,6 6,12 12,12 0,0 83,0 83,0 6,0 12,-6 12,-12 0,0 0,-12 0,-12 0,-6 -6,-12 -12,-12"
       id="path2" />
    <text
       text-anchor="middle"
       x="88.5"
       y="-21"
       font-family="sans"
       font-size="10px"
       id="text2">one_loop_matching</text>
    <text
       text-anchor="middle"
       x="88.5"
       y="-10"
       font-family="sans"
       font-size="10px"
       id="text3">channel: ps</text>
  </g>
  <g
     id="node2"
     class="node"
     transform="translate(47.602544,141.5959)">
    <title
       id="title3">1</title>
    <path
       fill="none"
       stroke="#d85656"
       stroke-width="2"
       d="m 75,-108 c 0,0 -63,0 -63,0 -6,0 -12,6 -12,12 0,0 0,12 0,12 0,6 6,12 12,12 0,0 63,0 63,0 6,0 12,-6 12,-12 0,0 0,-12 0,-12 0,-6 -6,-12 -12,-12"
       id="path3" />
    <text
       text-anchor="middle"
       x="43.5"
       y="-93"
       font-family="sans"
       font-size="10px"
       id="text4">avg_plaquette</text>
    <text
       text-anchor="middle"
       x="43.5"
       y="-82"
       font-family="sans"
       font-size="10px"
       id="text5">subdir: beta2.0</text>
  </g>
  <g
     id="edge1"
     class="edge"
     transform="translate(47.602544,141.5959)">
    <title
       id="title5">1-&gt;0</title>
    <path
       fill="none"
       stroke="#808080"
       stroke-width="2"
       d="m 54.62,-71.7 c 5.24,8.14 11.58,18.01 17.36,27"
       id="path5" />
    <polygon
       fill="#808080"
       stroke="#808080"
       stroke-width="2"
       points="77.5,-36.1 69.15,-42.62 75.04,-46.41 "
       id="polygon5" />
  </g>
  <g
     id="node3"
     class="node"
     transform="translate(47.602544,141.5959)">
    <title
       id="title6">2</title>
    <path
       fill="none"
       stroke="#70d856"
       stroke-width="2"
       d="m 151.5,-108 c 0,0 -34,0 -34,0 -6,0 -12,6 -12,12 0,0 0,12 0,12 0,6 6,12 12,12 0,0 34,0 34,0 6,0 12,-6 12,-12 0,0 0,-12 0,-12 0,-6 -6,-12 -12,-12"
       id="path6" />
    <text
       text-anchor="middle"
       x="134.5"
       y="-93"
       font-family="sans"
       font-size="10px"
       id="text6">ps_mass</text>
    <text
       text-anchor="middle"
       x="134.5"
       y="-82"
       font-family="sans"
       font-size="10px"
       id="text7">beta: 2.0</text>
  </g>
  <g
     id="edge2"
     class="edge"
     transform="translate(47.602544,141.5959)">
    <title
       id="title7">2-&gt;0</title>
    <path
       fill="none"
       stroke="#808080"
       stroke-width="2"
       d="m 123.13,-71.7 c -5.35,8.14 -11.83,18.01 -17.74,27"
       id="path7" />
    <polygon
       fill="#808080"
       stroke="#808080"
       stroke-width="2"
       points="99.74,-36.1 102.31,-46.38 108.16,-42.54 "
       id="polygon7" />
  </g>
  <text
     xml:space="preserve"
     style="font-style:normal;font-variant:normal;font-weight:normal;font-stretch:normal;font-size:10px;line-height:1.25;font-family:Sans;-inkscape-font-specification:Sans;text-align:center;text-anchor:middle;stroke-width:0.75"
     x="210.53937"
     y="8.3251953"
     id="text8"><tspan
       sodipodi:role="line"
       id="tspan7"
       style="font-style:normal;font-variant:normal;font-weight:normal;font-stretch:normal;font-size:10px;font-family:Sans;-inkscape-font-specification:Sans;text-align:center;text-anchor:middle;stroke-width:0.75"
       x="210.53937"
       y="8.3251953">raw_data/beta2.0/out_corr</tspan></text>
  <text
     xml:space="preserve"
     style="font-style:normal;font-variant:normal;font-weight:normal;font-stretch:normal;font-size:10px;line-height:1.25;font-family:Sans;-inkscape-font-specification:Sans;text-align:center;text-anchor:middle;stroke-width:0.75"
     x="75.335938"
     y="8.3251953"
     id="text9"><tspan
       sodipodi:role="line"
       id="tspan8"
       style="font-style:normal;font-variant:normal;font-weight:normal;font-stretch:normal;font-size:10px;font-family:Sans;-inkscape-font-specification:Sans;text-align:center;text-anchor:middle;stroke-width:0.75"
       x="75.335938"
       y="8.3251953">raw_data/beta2.0/out_hmc</tspan></text>
  <path
     style="fill:none;stroke:#000000;stroke-width:1.5;stroke-linecap:butt;stroke-linejoin:miter;stroke-dasharray:none;stroke-opacity:1;marker-end:url(#Triangle)"
     d="M 91.102544,12.237049 V 25.195063"
     id="path9"
     sodipodi:nodetypes="cc" />
  <path
     style="fill:none;stroke:#000000;stroke-width:1.5;stroke-linecap:butt;stroke-linejoin:miter;stroke-dasharray:none;stroke-opacity:1;marker-end:url(#Triangle)"
     d="M 182.10254,12.237049 V 25.195063"
     id="path10"
     sodipodi:nodetypes="cc" />
  <text
     xml:space="preserve"
     style="font-style:normal;font-variant:normal;font-weight:normal;font-stretch:normal;font-size:10px;line-height:1.25;font-family:Sans;-inkscape-font-specification:Sans;text-align:center;text-anchor:middle;stroke-width:0.75"
     x="135.75342"
     y="169.93364"
     id="text11"><tspan
       sodipodi:role="line"
       id="tspan11"
       style="font-style:normal;font-variant:normal;font-weight:normal;font-stretch:normal;font-size:10px;font-family:Sans;-inkscape-font-specification:Sans;text-align:center;text-anchor:middle;stroke-width:0.75"
       x="135.75342"
       y="169.93364">intermediary_data/beta2.0/pg.corr.ps_decay_const.json.gz</tspan></text>
</svg>
